<?xml version="1.0" encoding="utf-8"?>
<!-- Generator: Adobe Illustrator 16.0.0, SVG Export Plug-In . SVG Version: 6.00 Build 0)  -->
<!DOCTYPE svg PUBLIC "-//W3C//DTD SVG 1.1//EN" "http://www.w3.org/Graphics/SVG/1.1/DTD/svg11.dtd">
<svg version="1.1" id="Capa_1" xmlns="http://www.w3.org/2000/svg" xmlns:xlink="http://www.w3.org/1999/xlink" x="0px" y="0px"
	 width="893px" height="402.977px" viewBox="0 0 893 402.977" enable-background="new 0 0 893 402.977" xml:space="preserve">
<rect x="501.715" y="54.284" fill-rule="evenodd" clip-rule="evenodd" fill="#D7AE1A" width="195.715" height="348.692"/>
<rect y="54.284" fill-rule="evenodd" clip-rule="evenodd" fill="#F59C00" width="502.272" height="348.692"/>
<rect x="697.285" y="54.284" fill-rule="evenodd" clip-rule="evenodd" fill="#AF9959" width="195.716" height="348.692"/>
<text class="title" transform="matrix(1 0 0 1 16.9546 37.4497)" font-family="Roboto" font-weight="700" font-size="30">Eficacia del tratamiento antiparasitario</text>
<text transform="matrix(1 0 0 1 800 341.4688)" text-anchor="middle" textLength="500">
	<tspan class="text7 alteraciones" x="0" y="0" font-family="Roboto" font-weight="700" font-size="18.0176">ADULTO CRÓNICO </tspan>
	<tspan class="text8 alteraciones" x="0" y="15.897" font-family="Roboto" font-weight="700" font-size="18.0176">CON ALTERACIONES </tspan>
	<tspan class="text9 alteraciones" x="0" y="31.796" font-family="Roboto" font-weight="700" font-size="18.0176" letter-spacing="-1">CARDIACAS AVANZADAS</tspan>
	<tspan class="text9_2 alteraciones" x="0" y="47.6" font-family="Roboto" font-weight="700" font-size="18.0176" letter-spacing="-1"></tspan>
</text>
<rect x="75.583" y="-146.096" fill="none" width="716.047" height="100.495"/>
<!-- <text transform="matrix(1 0 0 1 75.5825 -133.3154)">
	<tspan x="0" y="0" font-family="'MyriadPro-Regular'" font-size="18">En orden: Neonato, jóven, adulto con infección aguda, adulto crónico temprano, adulto crónico </tspan><tspan x="0" y="21.6" font-family="'MyriadPro-Regular'" font-size="18">con alteraciones cardiacas. La eficacia de los dos tratamientos (benznidazol y nifurtimax) es </tspan><tspan x="0" y="43.199" font-family="'MyriadPro-Regular'" font-size="18">buena para los tres primeros grupos, menos buena para el cuarto grupo y pobre para el último </tspan>
	<tspan x="0" y="64.8" font-family="'MyriadPro-Regular'" font-size="18">grupo. (se puede representar con una flecha que disminuye en grosor). Para este último grupo </tspan>
	<tspan x="0" y="86.399" font-family="'MyriadPro-Regular'" font-size="18">es urgente desarrollar nuevos tratamientos. </tspan>
</text> -->
<g class="alteraciones">
	<circle fill="#010202" cx="758.5" cy="206.675" r="10.469"/>
	<path fill="#010202" d="M847.487,206.674h-52.345c-2.88,0-5.234,2.356-5.234,5.235v20.937h-10.469v5.235h10.469v20.938
		c0,2.878,2.354,5.234,5.234,5.234h52.345c2.88,0,5.235-2.356,5.235-5.234V211.91C852.722,209.03,850.367,206.674,847.487,206.674z
		 M847.487,259.021h-52.345V211.91h52.345V259.021z"/>
	<path fill="#010202" d="M821.315,253.785c9.616-9.615,19.127-14.865,20.628-23.759c0.185-0.775,0.309-1.581,0.309-2.412
		c0-5.78-4.689-10.47-10.468-10.47c-5.78,0-10.469,4.69-10.469,10.47c0-5.78-4.69-10.47-10.47-10.47
		c-5.778,0-10.468,4.69-10.468,10.47c0,0.831,0.119,1.637,0.308,2.412C802.188,238.92,811.698,244.17,821.315,253.785z"/>
	<path fill="#010202" d="M763.736,232.847h15.703c0-5.758-4.712-10.468-10.47-10.468h-20.938c-5.758,0-10.47,4.71-10.47,10.468
		v31.408c0,5.758,4.712,10.47,10.47,10.47v36.641c0,2.88,2.355,5.234,5.233,5.234h10.471c2.878,0,5.233-2.354,5.233-5.234v-36.641
		c5.758,0,10.47-4.712,10.47-10.47v-26.173h-15.703V232.847z"/>
</g>
<g>
	<text class="text1 neonato" transform="matrix(1 0 0 1 28.917 356.957)" font-family="Roboto" font-weight="700" font-size="18.0176">NEONATO</text>
	<g class="neonato">
		<g>
			<path fill-rule="evenodd" clip-rule="evenodd" d="M92.075,284.407c-0.125,2.785,0.027,5.615-0.429,8.346
				c-1.348,8.055-6.069,13.424-13.828,15.854c-9.567,3.003-19.938-2.068-23.725-11.358c-0.642-1.581-0.292-2.547,1.239-3.344
				c11.643-6.035,23.29-12.07,34.938-18.105c1.442-0.744,2.339-0.151,2.264,1.479c-0.112,2.377-0.218,4.759-0.326,7.137
				C92.166,284.415,92.118,284.409,92.075,284.407z"/>
			<path fill-rule="evenodd" clip-rule="evenodd" d="M52.934,262.544c0.154-2.834,0.129-5.676,0.934-8.45
				c2.306-7.939,9.58-13.732,17.822-14.129c10.614-0.513,19.71,7.286,20.621,17.837c0.23,2.661-0.074,5.371-0.145,8.056
				c-0.03,1.124-0.096,2.249-0.159,3.377c-0.05,1.065-0.564,1.83-1.511,2.316c-6.09,3.155-12.175,6.311-18.256,9.472
				c-0.387,0.203-0.664,0.186-1.04-0.052c-5.677-3.649-11.359-7.29-17.061-10.91c-1.036-0.658-1.502-1.541-1.427-2.765
				C52.817,265.712,52.867,264.127,52.934,262.544z M73.384,246.595c-0.417,0.861-0.718,1.815-1.279,2.577
				c-2.645,3.586-6.323,4.64-10.577,4.076c-0.697-0.09-1.037,0.017-1.321,0.704c-2.015,4.854-1.639,9.512,1.45,13.748
				c3.088,4.226,7.397,6.14,12.633,5.587c8.802-0.934,14.413-9.969,11.451-18.276c-0.189-0.532-0.411-0.765-1.028-0.723
				C78.982,254.688,74.998,251.956,73.384,246.595z"/>
			<path fill-rule="evenodd" clip-rule="evenodd" d="M68.164,283.703c-1.963,1.018-3.846,1.993-5.725,2.968
				c-2.515,1.311-5.039,2.62-7.555,3.926c-1.348,0.697-2.274,0.108-2.209-1.41c0.184-4.17,0.375-8.342,0.569-12.507
				c0.067-1.316,1.075-1.878,2.179-1.172c4.162,2.646,8.313,5.313,12.474,7.975C67.954,283.521,68.011,283.581,68.164,283.703z"/>
			<path fill-rule="evenodd" clip-rule="evenodd" d="M68.088,262.218c-1.541-0.063-2.712-1.35-2.649-2.889
				c0.071-1.475,1.383-2.656,2.875-2.587c1.532,0.075,2.683,1.304,2.64,2.813C70.905,261.092,69.628,262.28,68.088,262.218z"/>
			<path fill-rule="evenodd" clip-rule="evenodd" d="M79.084,262.71c-1.557-0.069-2.702-1.336-2.615-2.887
				c0.082-1.516,1.333-2.637,2.864-2.574c1.499,0.059,2.67,1.317,2.633,2.819C81.92,261.594,80.626,262.781,79.084,262.71z"/>
		</g>
		<g>
			<path fill-rule="evenodd" clip-rule="evenodd" d="M114.166,299.723c-0.055,1.232,0.012,2.483-0.189,3.69
				c-0.596,3.563-2.684,5.938-6.116,7.013c-4.231,1.327-8.818-0.915-10.493-5.024c-0.284-0.699-0.129-1.126,0.548-1.478
				c5.149-2.67,10.3-5.339,15.451-8.007c0.638-0.329,1.036-0.067,1.001,0.652c-0.05,1.053-0.096,2.104-0.143,3.156
				C114.206,299.726,114.185,299.724,114.166,299.723z"/>
			<path fill-rule="evenodd" clip-rule="evenodd" d="M96.855,289.462c0.069-1.253,0.058-2.51,0.413-3.737
				c1.021-3.511,4.237-6.072,7.883-6.248c4.694-0.227,8.717,3.223,9.119,7.889c0.102,1.177-0.032,2.375-0.064,3.563
				c-0.013,0.497-0.042,0.993-0.07,1.493c-0.023,0.471-0.25,0.809-0.668,1.023c-2.693,1.396-5.385,2.791-8.074,4.189
				c-0.17,0.091-0.293,0.082-0.459-0.022c-2.51-1.615-5.024-3.225-7.546-4.825c-0.458-0.291-0.665-0.682-0.631-1.223
				C96.803,290.863,96.825,290.162,96.855,289.462z M105.9,282.409c-0.184,0.38-0.317,0.803-0.565,1.139
				c-1.17,1.587-2.797,2.053-4.678,1.804c-0.309-0.041-0.458,0.007-0.584,0.312c-0.891,2.146-0.724,4.206,0.642,6.079
				c1.365,1.87,3.272,2.716,5.586,2.471c3.893-0.412,6.375-4.407,5.064-8.082c-0.083-0.234-0.182-0.337-0.454-0.32
				C108.375,285.988,106.614,284.78,105.9,282.409z"/>
			<path fill-rule="evenodd" clip-rule="evenodd" d="M103.591,298.82c-0.868,0.45-1.701,0.881-2.532,1.313
				c-1.112,0.578-2.228,1.158-3.34,1.735c-0.596,0.309-1.006,0.049-0.978-0.624c0.082-1.845,0.166-3.689,0.252-5.531
				c0.029-0.582,0.475-0.829,0.963-0.518c1.841,1.169,3.677,2.35,5.517,3.526C103.499,298.74,103.523,298.767,103.591,298.82z"/>
			<path fill-rule="evenodd" clip-rule="evenodd" d="M103.558,289.318c-0.681-0.028-1.2-0.597-1.172-1.278
				c0.032-0.651,0.612-1.174,1.273-1.144c0.677,0.033,1.186,0.576,1.166,1.244C104.804,288.821,104.238,289.346,103.558,289.318z"/>
			<path fill-rule="evenodd" clip-rule="evenodd" d="M108.42,289.535c-0.688-0.03-1.194-0.59-1.157-1.276
				c0.036-0.67,0.59-1.166,1.267-1.138c0.663,0.026,1.181,0.583,1.165,1.246C109.675,289.042,109.104,289.567,108.42,289.535z"/>
		</g>
		<g>
			<path fill-rule="evenodd" clip-rule="evenodd" d="M48.305,295.371c-0.078,1.716,0.017,3.458-0.264,5.141
				c-0.83,4.96-3.737,8.268-8.515,9.765c-5.893,1.848-12.279-1.275-14.612-6.995c-0.396-0.976-0.179-1.57,0.763-2.059
				c7.17-3.719,14.343-7.436,21.516-11.15c0.888-0.459,1.441-0.096,1.395,0.91c-0.069,1.463-0.135,2.929-0.201,4.394
				C48.361,295.376,48.331,295.373,48.305,295.371z"/>
			<path fill-rule="evenodd" clip-rule="evenodd" d="M24.199,281.084c0.095-1.746,0.079-3.495,0.574-5.204
				c1.421-4.89,5.9-8.457,10.977-8.702c6.536-0.315,12.139,4.487,12.699,10.985c0.143,1.64-0.045,3.309-0.088,4.962
				c-0.019,0.692-0.06,1.385-0.098,2.079c-0.031,0.656-0.349,1.127-0.93,1.427c-3.75,1.942-7.499,3.887-11.244,5.834
				c-0.239,0.125-0.408,0.114-0.64-0.032c-3.496-2.248-6.996-4.489-10.507-6.721c-0.638-0.404-0.925-0.947-0.879-1.701
				C24.127,283.035,24.158,282.058,24.199,281.084z M36.794,271.261c-0.256,0.531-0.442,1.119-0.787,1.589
				c-1.63,2.208-3.895,2.856-6.515,2.51c-0.429-0.056-0.638,0.01-0.813,0.433c-1.241,2.989-1.009,5.857,0.893,8.468
				c1.902,2.604,4.556,3.78,7.781,3.441c5.42-0.575,8.876-6.142,7.051-11.256c-0.116-0.328-0.253-0.471-0.632-0.445
				C40.242,276.246,37.787,274.563,36.794,271.261z"/>
			<path fill-rule="evenodd" clip-rule="evenodd" d="M33.579,294.116c-1.208,0.627-2.368,1.226-3.526,1.826
				c-1.549,0.808-3.104,1.613-4.652,2.419c-0.83,0.428-1.401,0.066-1.361-0.869c0.113-2.569,0.23-5.139,0.35-7.703
				c0.042-0.81,0.663-1.155,1.341-0.723c2.564,1.631,5.121,3.273,7.683,4.912C33.45,294.003,33.485,294.039,33.579,294.116z"/>
			<path fill-rule="evenodd" clip-rule="evenodd" d="M33.531,280.882c-0.947-0.037-1.669-0.831-1.631-1.776
				c0.043-0.909,0.853-1.638,1.771-1.594c0.944,0.047,1.652,0.802,1.626,1.731C35.268,280.189,34.48,280.922,33.531,280.882z"/>
			<path fill-rule="evenodd" clip-rule="evenodd" d="M40.304,281.187c-0.958-0.044-1.664-0.823-1.61-1.778
				c0.049-0.934,0.821-1.624,1.764-1.584c0.923,0.035,1.645,0.812,1.622,1.735C42.05,280.499,41.254,281.229,40.304,281.187z"/>
		</g>
	</g>
</g>
<g>
	<text class="text2 joven" text-anchor="middle" transform="matrix(1 0 0 1 230 357.3662)" font-family="Roboto" font-weight="700" font-size="18.0176">JOVEN</text>
	<g class="joven">
		<g>
			<path fill="none" d="M203.003,260.938l0.344,0.086c0.338,0.082,0.728-0.129,0.881-0.515l0.827-2.074
				c0.188-0.473,0.644-0.78,1.152-0.78h2.846c0.507,0,0.964,0.311,1.152,0.78l0.826,2.074c0.152,0.386,0.542,0.597,0.881,0.515
				l0.344-0.086c0.339-0.084,0.584-0.453,0.539-0.866l-0.433-4.059c-0.104-0.973-0.678-2.476-2.146-2.476h-0.004h-5.168h-0.002
				c-1.262,0-2.042,1.503-2.146,2.476l-0.433,4.059C202.42,260.484,202.665,260.854,203.003,260.938z M210.251,256.597
				c0,0.102-0.082,0.184-0.183,0.184h-0.269c-0.102,0-0.184-0.081-0.184-0.184v-0.296c0-0.029,0.011-0.059,0.032-0.081l0.132-0.131
				c0.083-0.083,0.22-0.083,0.304,0l0.131,0.131c0.023,0.024,0.034,0.052,0.034,0.081h0.001V256.597z M210.418,255.501
				L210.418,255.501l0.294-0.001c0.102,0,0.184,0.081,0.184,0.183v0.27c0,0.101-0.082,0.183-0.184,0.183h-0.294
				c-0.03,0-0.06-0.011-0.082-0.034l-0.131-0.132c-0.084-0.083-0.084-0.221,0-0.304l0.131-0.133
				C210.358,255.512,210.389,255.501,210.418,255.501z M209.616,255.021c0-0.101,0.083-0.184,0.184-0.184h0.269
				c0.102,0,0.184,0.082,0.184,0.184v0.296c0,0.028-0.012,0.058-0.034,0.081l-0.131,0.131c-0.083,0.084-0.221,0.084-0.304,0
				l-0.133-0.131c-0.023-0.023-0.034-0.053-0.034-0.081h-0.001V255.021z M208.954,255.681c0-0.101,0.082-0.184,0.184-0.184h0.295
				c0.03,0,0.059,0.012,0.081,0.033l0.131,0.132c0.084,0.084,0.084,0.22,0,0.303l-0.131,0.133c-0.023,0.022-0.051,0.033-0.081,0.033
				v0.001h-0.295c-0.1,0-0.184-0.081-0.184-0.185V255.681z M205.532,255.557c0.413,0,0.749,0.335,0.749,0.748
				c0,0.412-0.335,0.748-0.749,0.748s-0.749-0.336-0.749-0.748C204.784,255.892,205.119,255.557,205.532,255.557z M204.533,254.494
				c0.266,0,0.481,0.214,0.481,0.48c0,0.269-0.216,0.482-0.481,0.482c-0.267,0-0.481-0.214-0.481-0.482
				C204.052,254.708,204.268,254.494,204.533,254.494z"/>
			<path fill="#010202" d="M198.23,235.107c1.176,3.947,4.827,6.827,9.157,6.827c4.329,0,7.981-2.88,9.156-6.827l0.001,0.016
				c1.083-1.672,1.526-3.665,1.526-5.806c0-3.63-1.814-6.831-4.583-8.763c1.782-0.394,1.117-2.416,0.037-2.776
				c0.06,1.673-4.661,0.958-4.661,0.958l0.04,0.018c-0.497-0.071-1-0.12-1.517-0.12c-5.901,0-10.686,4.784-10.686,10.684
				c0,2.141,0.443,4.134,1.527,5.806L198.23,235.107z"/>
			<path fill="#010202" d="M205.35,307.884c-1.333,0-2.417,1.084-2.417,2.418h-0.518c0-1.417,1.008-2.601,2.345-2.876v-1.398h-5.783
				v4.241v0.744h9.051v-0.714h-0.26C207.77,308.968,206.684,307.884,205.35,307.884z"/>
			<path fill="#010202" d="M216.233,307.884c-1.333,0-2.419,1.084-2.419,2.418h-0.517c0-1.417,1.008-2.601,2.345-2.876v-1.398
				h-5.782v4.241v0.744h9.049v-0.714h-0.258C218.651,308.968,217.566,307.884,216.233,307.884z"/>
			<path fill="#010202" d="M216.192,305.338v-31.244c0.008-0.104,0.031-0.202,0.031-0.309v-1.622h-17.714v1.622
				c0,0.146,0.03,0.283,0.044,0.426v31.127h6.925v-26.898h3.791v26.898H216.192z"/>
			<path fill="#010202" d="M209.138,256.132h0.295v-0.001c0.03,0,0.059-0.012,0.081-0.033l0.131-0.133
				c0.084-0.083,0.084-0.219,0-0.303l-0.131-0.132c-0.023-0.022-0.051-0.033-0.081-0.033h-0.295c-0.1,0-0.184,0.083-0.184,0.184
				v0.271C208.954,256.051,209.036,256.132,209.138,256.132z"/>
			<circle fill="#010202" cx="205.532" cy="256.305" r="0.748"/>
			<circle fill="#010202" cx="204.533" cy="254.976" r="0.481"/>
			<path fill="#010202" d="M209.651,255.398l0.131,0.131c0.084,0.084,0.221,0.084,0.304,0l0.132-0.131
				c0.023-0.023,0.033-0.053,0.033-0.081v-0.296c0-0.101-0.082-0.184-0.183-0.184h-0.269c-0.101,0-0.184,0.082-0.184,0.184v0.296h0
				C209.616,255.346,209.628,255.375,209.651,255.398z"/>
			<path fill="#010202" d="M210.206,255.969l0.131,0.132c0.022,0.023,0.052,0.034,0.082,0.034h0.294
				c0.102,0,0.184-0.081,0.184-0.183v-0.27c0-0.101-0.082-0.183-0.184-0.183h-0.294v0.001c-0.03,0-0.06,0.011-0.082,0.031
				l-0.131,0.133C210.122,255.748,210.122,255.886,210.206,255.969z"/>
			<path fill="#010202" d="M210.216,256.22l-0.13-0.131c-0.083-0.083-0.221-0.083-0.304,0l-0.132,0.131
				c-0.022,0.024-0.033,0.052-0.033,0.081v0.296c0,0.102,0.082,0.184,0.184,0.184h0.269c0.102,0,0.184-0.081,0.184-0.184v-0.296
				h-0.001C210.25,256.271,210.239,256.244,210.216,256.22z"/>
			<path fill="#010202" d="M198.509,271.115h17.714V250.88l1.401,3.85l3.452-1.256l-0.005-0.014l1.084-0.4l-3.107-7.895
				c-0.291-0.803-1.838-1.151-2.826-0.997v-0.018h-5.715c0,1.776-1.408,3.217-3.142,3.217c-1.735,0-3.143-1.44-3.143-3.217h-5.715
				v0.016c-0.966-0.131-2.403,0.269-2.693,1.062l-3.106,7.962l4.417,1.54l1.381-3.796L198.509,271.115L198.509,271.115z
				 M202.897,256.013c0.104-0.974,0.884-2.477,2.146-2.477h0.003h5.168h0.004c1.468,0,2.042,1.503,2.146,2.477l0.433,4.058
				c0.044,0.412-0.201,0.783-0.539,0.864l-0.344,0.086c-0.339,0.085-0.728-0.127-0.881-0.513l-0.827-2.074
				c-0.188-0.473-0.644-0.781-1.152-0.781h-2.846c-0.508,0-0.964,0.31-1.153,0.781l-0.826,2.074
				c-0.153,0.386-0.542,0.598-0.881,0.513l-0.344-0.086c-0.338-0.081-0.583-0.452-0.539-0.864L202.897,256.013z"/>
			<path fill="#010202" d="M204.897,242.318v1.894c0,1.376,1.114,2.491,2.49,2.491c1.375,0,2.489-1.115,2.489-2.491v-1.894
				c-0.799,0.192-1.631,0.306-2.489,0.306C206.528,242.624,205.698,242.511,204.897,242.318z"/>
			<path fill="#010202" d="M193.033,254.158l-7.393,20.314c-0.343,0.939,0.143,1.98,1.083,2.323
				c0.205,0.074,0.415,0.109,0.621,0.109c0.74,0,1.436-0.457,1.704-1.192l7.406-20.349L193.033,254.158z"/>
			<path fill="#010202" d="M221.702,254.175l7.394,20.313c0.342,0.94-0.143,1.982-1.084,2.324c-0.205,0.074-0.414,0.109-0.62,0.109
				c-0.74,0-1.438-0.458-1.705-1.194l-7.406-20.347L221.702,254.175z"/>
			<rect x="200.942" y="252.478" fill-rule="evenodd" clip-rule="evenodd" width="13.443" height="9.538"/>
		</g>
		<g>
			<path fill="none" d="M250.602,260.598l0.349,0.089c0.343,0.083,0.737-0.132,0.895-0.523l0.838-2.103
				c0.19-0.48,0.653-0.793,1.168-0.793h2.887c0.515,0,0.978,0.313,1.169,0.793l0.838,2.103c0.156,0.391,0.551,0.606,0.895,0.523
				l0.348-0.089c0.344-0.085,0.593-0.458,0.548-0.877l-0.439-4.117c-0.105-0.986-0.688-2.512-2.176-2.512h-0.004h-5.243h-0.004
				c-1.279,0-2.071,1.525-2.177,2.512l-0.439,4.117C250.008,260.139,250.257,260.513,250.602,260.598z M257.952,256.195
				c0,0.103-0.083,0.185-0.186,0.185h-0.273c-0.103,0-0.185-0.082-0.185-0.185v-0.298c0-0.03,0.011-0.061,0.033-0.083l0.132-0.133
				c0.085-0.085,0.225-0.085,0.31,0l0.133,0.133c0.022,0.022,0.033,0.053,0.033,0.083h0.001v0.298H257.952z M258.122,255.083
				L258.122,255.083h0.299c0.103,0,0.186,0.081,0.186,0.185v0.273c0,0.102-0.083,0.185-0.186,0.185h-0.299
				c-0.03,0-0.061-0.011-0.083-0.033l-0.132-0.133c-0.085-0.085-0.085-0.225,0-0.31l0.132-0.132
				C258.061,255.094,258.092,255.083,258.122,255.083z M257.308,254.598c0-0.103,0.082-0.185,0.185-0.185h0.273
				c0.103,0,0.186,0.082,0.186,0.185v0.3c0,0.031-0.012,0.061-0.034,0.084l-0.133,0.132c-0.084,0.085-0.223,0.085-0.308,0
				l-0.132-0.132c-0.023-0.023-0.035-0.053-0.035-0.084h-0.001L257.308,254.598L257.308,254.598z M256.637,255.267
				c0-0.103,0.083-0.186,0.186-0.186h0.301c0.029,0,0.059,0.012,0.082,0.033l0.132,0.133c0.084,0.085,0.084,0.225,0,0.31
				l-0.132,0.132c-0.022,0.023-0.053,0.034-0.082,0.034l0,0h-0.301c-0.102,0-0.186-0.081-0.186-0.184V255.267z M253.166,255.141
				c0.419,0,0.759,0.339,0.759,0.76c0,0.419-0.34,0.758-0.759,0.758c-0.419,0-0.759-0.339-0.759-0.758
				C252.406,255.479,252.745,255.141,253.166,255.141z M252.152,254.063c0.271,0,0.488,0.218,0.488,0.487
				c0,0.272-0.217,0.489-0.488,0.489c-0.27,0-0.489-0.217-0.489-0.489C251.665,254.281,251.883,254.063,252.152,254.063z"/>
			<path fill="none" d="M264.507,224.786c0.038,0.148,0.073,0.299,0.105,0.449c-0.008-0.132-0.025-0.25-0.03-0.387l0.075-0.047
				C264.607,224.796,264.557,224.792,264.507,224.786z"/>
			<path fill="#010202" d="M256.823,255.724h0.301v-0.001c0.029,0,0.059-0.01,0.082-0.033l0.132-0.133
				c0.084-0.085,0.084-0.224,0-0.308l-0.132-0.133c-0.022-0.023-0.053-0.033-0.082-0.033h-0.301c-0.102,0-0.186,0.081-0.186,0.185
				v0.273C256.637,255.642,256.721,255.724,256.823,255.724z"/>
			<circle fill="#010202" cx="253.166" cy="255.899" r="0.759"/>
			<circle fill="#010202" cx="252.152" cy="254.551" r="0.488"/>
			<path fill="#010202" d="M257.342,254.98l0.133,0.131c0.086,0.085,0.224,0.085,0.309,0l0.133-0.131
				c0.022-0.024,0.034-0.053,0.034-0.084v-0.299c0-0.103-0.082-0.185-0.185-0.185h-0.272c-0.104,0-0.186,0.082-0.186,0.185v0.3
				h0.001C257.309,254.928,257.32,254.956,257.342,254.98z"/>
			<path fill="#010202" d="M257.906,255.56l0.132,0.133c0.022,0.022,0.053,0.033,0.083,0.033h0.299c0.103,0,0.186-0.083,0.186-0.185
				v-0.273c0-0.104-0.083-0.185-0.186-0.185h-0.299l0,0c-0.03,0-0.061,0.011-0.083,0.034l-0.132,0.133
				C257.821,255.335,257.821,255.475,257.906,255.56z"/>
			<path fill="#010202" d="M257.918,255.814l-0.133-0.133c-0.084-0.085-0.223-0.085-0.308,0l-0.132,0.133
				c-0.023,0.022-0.035,0.053-0.035,0.083v0.298c0,0.103,0.083,0.185,0.185,0.185h0.273c0.102,0,0.185-0.082,0.185-0.185v-0.298h0
				C257.952,255.867,257.94,255.837,257.918,255.814z"/>
			<path fill="#010202" d="M232.986,274.328c-0.347,0.954,0.146,2.013,1.101,2.358c0.208,0.075,0.419,0.11,0.629,0.11
				c0.751,0,1.456-0.463,1.729-1.211l7.512-20.641l-3.47-1.224L232.986,274.328z"/>
			<path fill="#010202" d="M277.068,274.346l-7.5-20.606l-3.47,1.223l7.512,20.641c0.272,0.748,0.978,1.212,1.729,1.212
				c0.209,0,0.421-0.037,0.63-0.112C276.924,276.355,277.417,275.3,277.068,274.346z"/>
			<path fill="#010202" d="M246.125,235.673c0.075-0.107,0.12-0.23,0.171-0.354c1.493,3.341,4.836,5.672,8.731,5.672
				c3.917,0,7.28-2.359,8.759-5.729c0.039,0.075,0.062,0.157,0.11,0.226c0.477,0.428-0.11-1.086,0.792-2.06
				c0.901-0.973,0.808-2.176,0.18-3.297c-0.515-0.919-0.103-1.651,0.207-2.038c1.473,5.124,5.763,6.238,5.568,5.56
				c-3.357-3.103-0.312-12.484-0.312-12.484l-0.031,0.018c0.208-0.581,0.343-1.198,0.343-1.851c0-2.689-1.928-4.922-4.477-5.408
				c-0.31-0.082-0.621-0.109-0.931-0.094c-0.035-0.001-0.069-0.01-0.105-0.01c-2.617,0-4.798,1.83-5.359,4.278
				c-0.417-0.043-0.836-0.055-1.249-0.002c0.012,0.005,0.022,0.011,0.032,0.016c-1.097-0.425-2.289-0.663-3.537-0.663
				c-5.423,0-9.82,4.397-9.82,9.819c0,0.188,0.047,0.36,0.121,0.518c0.002,0.005-0.002,0.013,0,0.018
				c0.191,0.321,0.407,1.36-0.222,2.481c-0.628,1.12-0.663,2.351,0.239,3.323C246.236,234.587,245.651,236.1,246.125,235.673z
				 M264.611,225.235c-0.031-0.15-0.066-0.301-0.104-0.449c0.05,0.007,0.1,0.01,0.15,0.015l-0.075,0.049
				C264.586,224.985,264.604,225.103,264.611,225.235z M259.64,218.617c-0.033-0.018-0.063-0.037-0.096-0.055
				C259.577,218.58,259.607,218.599,259.64,218.617z"/>
			<path fill="#010202" d="M247.103,282.116l0.005,23.125l4.951-0.003l-0.005-23.122h5.948l0.005,23.125l4.951-0.003l-0.005-23.122
				h0.918v-11.192h0.14v-20.526l1.421,3.905l3.502-1.275l-0.005-0.015l1.1-0.404l-3.151-8.011c-0.295-0.813-1.864-1.168-2.866-1.012
				v-0.015h-5.798c0,1.802-1.426,3.262-3.188,3.262c-1.76,0-3.188-1.46-3.188-3.262h-5.797v0.015
				c-0.981-0.133-2.439,0.271-2.732,1.078l-3.151,8.075l4.481,1.563l1.402-3.851v20.472h0.099v11.192H247.103z M250.492,255.604
				c0.106-0.986,0.898-2.512,2.178-2.512h0.004h5.243h0.004c1.488,0,2.07,1.525,2.175,2.512l0.44,4.117
				c0.044,0.419-0.204,0.792-0.548,0.877l-0.347,0.089c-0.344,0.083-0.739-0.132-0.895-0.523l-0.839-2.103
				c-0.19-0.48-0.654-0.793-1.169-0.793h-2.887c-0.515,0-0.979,0.313-1.169,0.793l-0.839,2.103c-0.155,0.391-0.55,0.606-0.895,0.523
				l-0.349-0.089c-0.344-0.085-0.593-0.458-0.548-0.877L250.492,255.604z"/>
			<path fill="#010202" d="M253.191,307.837c-1.353,0-2.454,1.102-2.454,2.455h-0.524c0-1.438,1.023-2.64,2.378-2.919v-1.416h-5.865
				v4.301v0.756h9.181v-0.722h-0.262C255.645,308.938,254.543,307.837,253.191,307.837z"/>
			<path fill="#010202" d="M264.231,307.837c-1.354,0-2.455,1.102-2.455,2.455h-0.524c0-1.438,1.022-2.64,2.378-2.919v-1.416h-5.865
				v4.301v0.756h9.181v-0.722h-0.263C266.683,308.938,265.583,307.837,264.231,307.837z"/>
			<path fill="#010202" d="M252.582,243.479c0,1.396,1.131,2.524,2.525,2.524c1.395,0,2.525-1.13,2.525-2.524v-1.922
				c-0.813,0.196-1.655,0.312-2.525,0.312c-0.871,0-1.714-0.115-2.525-0.312V243.479z"/>
			<rect x="248.574" y="252.283" fill-rule="evenodd" clip-rule="evenodd" width="13.443" height="9.539"/>
		</g>
	</g>
</g>
<text transform="matrix(1 0 0 1 346.5054 349.0078)">
	<tspan class="text3 aguda" x="0" y="0" font-family="Roboto" font-weight="700" font-size="18.0176">ADULTO CON </tspan>
	<tspan class="text4 aguda" x="-21.911" y="15.897" font-family="Roboto" font-weight="700" font-size="18.0176">INFECCIÓN AGUDA </tspan>
</text>
<g class="aguda">
	<g>
		<circle fill="#010202" cx="395.09" cy="202.556" r="10.469"/>
		<path fill="#010202" d="M416.029,228.728c0-5.757-4.711-10.468-10.469-10.468h-20.938c-5.759,0-10.47,4.711-10.47,10.468v31.408
			c0,5.758,4.711,10.468,10.47,10.468v36.643c0,2.88,2.355,5.234,5.233,5.234h10.47c2.878,0,5.234-2.354,5.234-5.234v-36.643
			c5.757,0,10.469-4.71,10.469-10.468"/>
	</g>
</g>
<g class="temprano">
	<g>
		<circle fill="#010202" cx="599.798" cy="202.556" r="10.469"/>
		<path fill="#010202" d="M620.737,228.728c0-5.757-4.711-10.468-10.469-10.468h-20.938c-5.76,0-10.471,4.711-10.471,10.468v31.408
			c0,5.758,4.711,10.468,10.471,10.468v36.643c0,2.88,2.354,5.234,5.232,5.234h10.471c2.879,0,5.234-2.354,5.234-5.234v-36.643
			c5.758,0,10.469-4.71,10.469-10.468"/>
	</g>
</g>
<text transform="matrix(1 0 0 1 600 349.418)" text-anchor="middle">
	<tspan class="text5 temprano" x="0" y="0" font-family="Roboto" font-weight="700" font-size="18.0176">ADULTO CRÓNICO </tspan>
	<tspan class="text6 temprano" x="0" y="15.897" font-family="Roboto" font-weight="700" font-size="18.0176">TEMPRANO </tspan>
</text>
<text transform="matrix(1 0 0 1 730.3149 509.9277)"><tspan x="0" y="0" font-family="Roboto" font-weight="700" font-size="24">Pobre</tspan><tspan x="-35.429" y="20" font-family="Roboto" font-size="14">Urge desarrollar nuevos</tspan><tspan x="-1.471" y="36.801" font-family="Roboto" font-size="14">tratamientos</tspan></text>
<text transform="matrix(1 0 0 1 721.5601 146.9282)">
	<tspan class="text10" x="0" y="0" font-family="Roboto" font-size="14">Urge desarrollar nuevos</tspan>
	<tspan class="text11" x="33.958" y="16.8" font-family="Roboto" font-size="14">tratamientos</tspan>
</text>
<g>
	<line fill="none" stroke="#000000" stroke-width="30" stroke-miterlimit="10" x1="47.579" y1="98.419" x2="501.075" y2="98.419"/>
	<g>
		<polygon points="500.075,83.419 841.359,98.419 500.075,113.419 		"/>
	</g>
	<text transform="matrix(1 0 0 1 13.8599 109.647)" font-family="Roboto" font-weight="700" font-size="35">+</text>
	<text transform="matrix(1 0 0 1 857.8599 109.647)" font-family="Roboto" font-weight="700" font-size="35">-</text>
</g>
<text class="source" transform="matrix(1 0 0 1 16.9546 400.9043)" font-family="Roboto" font-style="italic" font-size="8">Fuente: Coalición Global de la Enfermedad de Chagas: Rompiendo el Silencio, una oportunidad para los pacientes de Chagas.</text>
</svg>
