<?xml version="1.0" encoding="UTF-8"?>
<!-- Generator: Adobe Illustrator 16.0.0, SVG Export Plug-In . SVG Version: 6.00 Build 0)  -->
<!DOCTYPE svg PUBLIC "-//W3C//DTD SVG 1.1//EN" "http://www.w3.org/Graphics/SVG/1.1/DTD/svg11.dtd">
<svg version="1.1" id="Capa_1" xmlns="http://www.w3.org/2000/svg" xmlns:xlink="http://www.w3.org/1999/xlink" x="0px" y="0px" width="893px" height="350.167px" viewBox="0 0 893 350.167" enable-background="new 0 0 893 350.167" xml:space="preserve">
<rect y="48.169" fill="#DADADA" width="893" height="301.998"/>
<rect x="23.277" y="-3" fill="none" width="438.723" height="43.341"/>
<text class="title" transform="matrix(1 0 0 1 23.5654 39)" fill="#1D1D1B" font-family="Roboto" font-weight="700" font-size="30">El coste del Chagas</text>
<text class="source" transform="matrix(1 0 0 1 22.9893 343.5186)" fill="#1D1D1B" font-family="Roboto" font-style="italic" font-size="8">Fuente: Coalición Global de la Enfermedad de Chagas: Rompiendo el Silencio, una oportunidad para los pacientes de Chagas.</text>
<text class="text1" transform="matrix(1 0 0 1 615.3125 258.1641)" font-family="Roboto" font-weight="700" font-size="14">162 millones de dólares</text>
<g>
	<rect x="559.014" y="242.157" fill="#008D36" width="52.5" height="21.001"/>
	<circle fill="#95C11F" cx="585.264" cy="252.658" r="9.417"/>
	<text transform="matrix(1 0 0 1 565.0635 257.1641)" font-family="Roboto" font-size="12">$ 162M</text>
</g>
<text transform="matrix(1 0 0 1 546.2598 299.5)">
	<tspan class="text2" x="0" y="0" font-family="Roboto" font-size="16">inversión en I+D en 10 años </tspan>
	<tspan class="text3" x="77.084" y="14.4" font-family="Roboto" font-size="12">(2003 a 2013)</tspan>
</text>
<g>
	<g>
		<g>
			<g>
				<rect x="84.522" y="242.156" fill="#008D36" width="52.5" height="21.001"/>
				<circle fill="#95C11F" cx="110.773" cy="252.657" r="9.417"/>
				<text transform="matrix(1 0 0 1 90.5723 257.1636)" font-family="Roboto" font-size="12">$ 162M</text>
			</g>
			<g>
				<rect x="141.188" y="242.156" fill="#008D36" width="52.5" height="21"/>
				<circle fill="#95C11F" cx="167.439" cy="252.656" r="9.417"/>
				<text transform="matrix(1 0 0 1 147.2388 257.1626)" font-family="Roboto" font-size="12">$ 162M</text>
			</g>
			<g>
				<rect x="197.188" y="242.156" fill="#008D36" width="52.501" height="21"/>
				<circle fill="#95C11F" cx="223.439" cy="252.656" r="9.417"/>
				<text transform="matrix(1 0 0 1 203.2388 257.1626)" font-family="Roboto" font-size="12">$ 162M</text>
			</g>
			<g>
				<rect x="253.855" y="242.156" fill="#008D36" width="52.5" height="21"/>
				<circle fill="#95C11F" cx="280.106" cy="252.656" r="9.417"/>
				<text transform="matrix(1 0 0 1 259.9053 257.1626)" font-family="Roboto" font-size="12">$ 162M</text>
			</g>
			<g>
				<rect x="309.855" y="242.156" fill="#008D36" width="52.5" height="21"/>
				<circle fill="#95C11F" cx="336.105" cy="252.656" r="9.417"/>
				<text transform="matrix(1 0 0 1 315.9048 257.1626)" font-family="Roboto" font-size="12">$ 162M</text>
			</g>
			<g>
				<rect x="365.521" y="242.155" fill="#008D36" width="52.5" height="21.001"/>
				<circle fill="#95C11F" cx="391.772" cy="252.656" r="9.417"/>
				<text transform="matrix(1 0 0 1 371.5713 257.1626)" font-family="Roboto" font-size="12">$ 162M</text>
			</g>
		</g>
		<g>
			<g>
				<rect x="84.522" y="217.375" fill="#008D36" width="52.5" height="21"/>
				<circle fill="#95C11F" cx="110.773" cy="227.875" r="9.417"/>
				<text transform="matrix(1 0 0 1 90.5723 232.3813)" font-family="Roboto" font-size="12">$ 162M</text>
			</g>
			<g>
				<rect x="141.188" y="217.374" fill="#008D36" width="52.5" height="21.001"/>
				<circle fill="#95C11F" cx="167.439" cy="227.875" r="9.417"/>
				<text transform="matrix(1 0 0 1 147.2388 232.3813)" font-family="Roboto" font-size="12">$ 162M</text>
			</g>
			<g>
				<rect x="197.188" y="217.374" fill="#008D36" width="52.501" height="21.001"/>
				<circle fill="#95C11F" cx="223.439" cy="227.875" r="9.417"/>
				<text transform="matrix(1 0 0 1 203.2388 232.3813)" font-family="Roboto" font-size="12">$ 162M</text>
			</g>
			<g>
				<rect x="253.855" y="217.373" fill="#008D36" width="52.5" height="21.001"/>
				<circle fill="#95C11F" cx="280.105" cy="227.874" r="9.416"/>
				<text transform="matrix(1 0 0 1 259.9053 232.3804)" font-family="Roboto" font-size="12">$ 162M</text>
			</g>
			<g>
				<rect x="309.855" y="217.373" fill="#008D36" width="52.5" height="21.001"/>
				<circle fill="#95C11F" cx="336.104" cy="227.874" r="9.417"/>
				<text transform="matrix(1 0 0 1 315.9048 232.3804)" font-family="Roboto" font-size="12">$ 162M</text>
			</g>
			<g>
				<rect x="365.521" y="217.373" fill="#008D36" width="52.5" height="21"/>
				<circle fill="#95C11F" cx="391.771" cy="227.873" r="9.416"/>
				<text transform="matrix(1 0 0 1 371.5713 232.3794)" font-family="Roboto" font-size="12">$ 162M</text>
			</g>
		</g>
		<g>
			<g>
				<rect x="84.522" y="192.592" fill="#008D36" width="52.5" height="21.001"/>
				<circle fill="#95C11F" cx="110.773" cy="203.093" r="9.417"/>
				<text transform="matrix(1 0 0 1 90.5723 207.6001)" font-family="Roboto" font-size="12">$ 162M</text>
			</g>
			<g>
				<rect x="141.188" y="192.591" fill="#008D36" width="52.5" height="21.001"/>
				<circle fill="#95C11F" cx="167.439" cy="203.092" r="9.417"/>
				<text transform="matrix(1 0 0 1 147.2388 207.5991)" font-family="Roboto" font-size="12">$ 162M</text>
			</g>
			<g>
				<rect x="197.188" y="192.591" fill="#008D36" width="52.501" height="21.001"/>
				<circle fill="#95C11F" cx="223.439" cy="203.092" r="9.417"/>
				<text transform="matrix(1 0 0 1 203.2388 207.5991)" font-family="Roboto" font-size="12">$ 162M</text>
			</g>
			<g>
				<rect x="253.855" y="192.591" fill="#008D36" width="52.5" height="21"/>
				<circle fill="#95C11F" cx="280.106" cy="203.091" r="9.417"/>
				<text transform="matrix(1 0 0 1 259.9053 207.5991)" font-family="Roboto" font-size="12">$ 162M</text>
			</g>
			<g>
				<rect x="309.855" y="192.591" fill="#008D36" width="52.5" height="21"/>
				<circle fill="#95C11F" cx="336.105" cy="203.091" r="9.416"/>
				<text transform="matrix(1 0 0 1 315.9048 207.5991)" font-family="Roboto" font-size="12">$ 162M</text>
			</g>
			<g>
				<rect x="365.521" y="192.591" fill="#008D36" width="52.5" height="21"/>
				<circle fill="#95C11F" cx="391.772" cy="203.091" r="9.417"/>
				<text transform="matrix(1 0 0 1 371.5713 207.5981)" font-family="Roboto" font-size="12">$ 162M</text>
			</g>
		</g>
		<g>
			<g>
				<rect x="84.522" y="167.81" fill="#008D36" width="52.5" height="21.001"/>
				<circle fill="#95C11F" cx="110.773" cy="178.311" r="9.417"/>
				<text transform="matrix(1 0 0 1 90.5723 182.8179)" font-family="Roboto" font-size="12">$ 162M</text>
			</g>
			<g>
				<rect x="141.188" y="167.81" fill="#008D36" width="52.5" height="21"/>
				<circle fill="#95C11F" cx="167.439" cy="178.31" r="9.417"/>
				<text transform="matrix(1 0 0 1 147.2388 182.8179)" font-family="Roboto" font-size="12">$ 162M</text>
			</g>
			<g>
				<rect x="197.188" y="167.81" fill="#008D36" width="52.501" height="21"/>
				<circle fill="#95C11F" cx="223.439" cy="178.31" r="9.417"/>
				<text transform="matrix(1 0 0 1 203.2388 182.8179)" font-family="Roboto" font-size="12">$ 162M</text>
			</g>
			<g>
				<rect x="253.855" y="167.81" fill="#008D36" width="52.5" height="21"/>
				<circle fill="#95C11F" cx="280.105" cy="178.31" r="9.416"/>
				<text transform="matrix(1 0 0 1 259.9053 182.8179)" font-family="Roboto" font-size="12">$ 162M</text>
			</g>
			<g>
				<rect x="309.855" y="167.81" fill="#008D36" width="52.5" height="21"/>
				<circle fill="#95C11F" cx="336.104" cy="178.31" r="9.417"/>
				<text transform="matrix(1 0 0 1 315.9048 182.8179)" font-family="Roboto" font-size="12">$ 162M</text>
			</g>
			<g>
				<rect x="365.521" y="167.809" fill="#008D36" width="52.5" height="21.001"/>
				<circle fill="#95C11F" cx="391.771" cy="178.31" r="9.416"/>
				<text transform="matrix(1 0 0 1 371.5713 182.8169)" font-family="Roboto" font-size="12">$ 162M</text>
			</g>
		</g>
		<g>
			<g>
				<rect x="84.522" y="143.029" fill="#008D36" width="52.5" height="21"/>
				<circle fill="#95C11F" cx="110.773" cy="153.529" r="9.417"/>
				<text transform="matrix(1 0 0 1 90.5723 158.0366)" font-family="Roboto" font-size="12">$ 162M</text>
			</g>
			<g>
				<rect x="141.188" y="143.029" fill="#008D36" width="52.5" height="21"/>
				<circle fill="#95C11F" cx="167.439" cy="153.529" r="9.417"/>
				<text transform="matrix(1 0 0 1 147.2388 158.0366)" font-family="Roboto" font-size="12">$ 162M</text>
			</g>
			<g>
				<rect x="197.188" y="143.029" fill="#008D36" width="52.5" height="21"/>
				<circle fill="#95C11F" cx="223.438" cy="153.529" r="9.416"/>
				<text transform="matrix(1 0 0 1 203.2388 158.0366)" font-family="Roboto" font-size="12">$ 162M</text>
			</g>
			<g>
				<rect x="253.854" y="143.028" fill="#008D36" width="52.5" height="21.001"/>
				<circle fill="#95C11F" cx="280.105" cy="153.529" r="9.417"/>
				<text transform="matrix(1 0 0 1 259.9053 158.0356)" font-family="Roboto" font-size="12">$ 162M</text>
			</g>
			<g>
				<rect x="309.854" y="143.028" fill="#008D36" width="52.5" height="21.001"/>
				<circle fill="#95C11F" cx="336.104" cy="153.529" r="9.416"/>
				<text transform="matrix(1 0 0 1 315.9048 158.0356)" font-family="Roboto" font-size="12">$ 162M</text>
			</g>
			<g>
				<rect x="365.521" y="143.027" fill="#008D36" width="52.5" height="21.001"/>
				<circle fill="#95C11F" cx="391.771" cy="153.528" r="9.417"/>
				<text transform="matrix(1 0 0 1 371.5713 158.0347)" font-family="Roboto" font-size="12">$ 162M</text>
			</g>
		</g>
		<g>
			<g>
				<rect x="84.522" y="118.248" fill="#008D36" width="52.5" height="21"/>
				<circle fill="#95C11F" cx="110.773" cy="128.748" r="9.417"/>
				<text transform="matrix(1 0 0 1 90.5723 133.2544)" font-family="Roboto" font-size="12">$ 162M</text>
			</g>
			<g>
				<rect x="141.188" y="118.247" fill="#008D36" width="52.5" height="21.001"/>
				<circle fill="#95C11F" cx="167.439" cy="128.748" r="9.417"/>
				<text transform="matrix(1 0 0 1 147.2388 133.2534)" font-family="Roboto" font-size="12">$ 162M</text>
			</g>
			<g>
				<rect x="197.188" y="118.247" fill="#008D36" width="52.501" height="21.001"/>
				<circle fill="#95C11F" cx="223.439" cy="128.748" r="9.417"/>
				<text transform="matrix(1 0 0 1 203.2388 133.2534)" font-family="Roboto" font-size="12">$ 162M</text>
			</g>
			<g>
				<rect x="253.855" y="118.246" fill="#008D36" width="52.5" height="21.001"/>
				<circle fill="#95C11F" cx="280.105" cy="128.747" r="9.416"/>
				<text transform="matrix(1 0 0 1 259.9053 133.2534)" font-family="Roboto" font-size="12">$ 162M</text>
			</g>
			<g>
				<rect x="309.855" y="118.246" fill="#008D36" width="52.5" height="21.001"/>
				<circle fill="#95C11F" cx="336.104" cy="128.747" r="9.417"/>
				<text transform="matrix(1 0 0 1 315.9048 133.2534)" font-family="Roboto" font-size="12">$ 162M</text>
			</g>
			<g>
				<rect x="365.521" y="118.246" fill="#008D36" width="52.5" height="21"/>
				<circle fill="#95C11F" cx="391.771" cy="128.746" r="9.416"/>
				<text transform="matrix(1 0 0 1 371.5713 133.2534)" font-family="Roboto" font-size="12">$ 162M</text>
			</g>
		</g>
		<g>
			<g>
				<rect x="84.522" y="93.465" fill="#008D36" width="52.5" height="21.001"/>
				<circle fill="#95C11F" cx="110.773" cy="103.966" r="9.417"/>
				<text transform="matrix(1 0 0 1 90.5723 108.4722)" font-family="Roboto" font-size="12">$ 162M</text>
			</g>
			<g>
				<rect x="141.188" y="93.464" fill="#008D36" width="52.5" height="21.001"/>
				<circle fill="#95C11F" cx="167.439" cy="103.965" r="9.417"/>
				<text transform="matrix(1 0 0 1 147.2388 108.4722)" font-family="Roboto" font-size="12">$ 162M</text>
			</g>
			<g>
				<rect x="197.188" y="93.464" fill="#008D36" width="52.5" height="21.001"/>
				<circle fill="#95C11F" cx="223.438" cy="103.965" r="9.416"/>
				<text transform="matrix(1 0 0 1 203.2388 108.4722)" font-family="Roboto" font-size="12">$ 162M</text>
			</g>
			<g>
				<rect x="253.854" y="93.464" fill="#008D36" width="52.5" height="21"/>
				<circle fill="#95C11F" cx="280.105" cy="103.964" r="9.417"/>
				<text transform="matrix(1 0 0 1 259.9053 108.4722)" font-family="Roboto" font-size="12">$ 162M</text>
			</g>
			<g>
				<rect x="309.854" y="93.464" fill="#008D36" width="52.5" height="21"/>
				<circle fill="#95C11F" cx="336.104" cy="103.964" r="9.416"/>
				<text transform="matrix(1 0 0 1 315.9048 108.4722)" font-family="Roboto" font-size="12">$ 162M</text>
			</g>
			<g>
				<rect x="365.521" y="93.464" fill="#008D36" width="52.5" height="21"/>
				<circle fill="#95C11F" cx="391.771" cy="103.964" r="9.417"/>
				<text transform="matrix(1 0 0 1 371.5713 108.4712)" font-family="Roboto" font-size="12">$ 162M</text>
			</g>
		</g>
	</g>
	<g>
		<rect x="84.522" y="68.465" fill="#008D36" width="52.5" height="21.001"/>
		<circle fill="#95C11F" cx="110.773" cy="78.966" r="9.417"/>
		<text transform="matrix(1 0 0 1 90.5723 83.4722)" font-family="Roboto" font-size="12">$ 162M</text>
	</g>
	<g>
		<rect x="141.189" y="68.465" fill="#008D36" width="52.5" height="21.001"/>
		<circle fill="#95C11F" cx="167.44" cy="78.966" r="9.417"/>
		<text transform="matrix(1 0 0 1 147.2393 83.4722)" font-family="Roboto" font-size="12">$ 162M</text>
	</g>
</g>
<text class="text4" transform="matrix(1 0 0 1 196.8018 84.4722)" font-family="Roboto" font-weight="700" font-size="14">7.200 millones de dólares</text>
<text class="text5" transform="matrix(1 0 0 1 153.1631 299.5)" font-family="Roboto" font-size="16">Coste económico anual</text>
</svg>
