<?xml version="1.0" encoding="UTF-8"?>
<!-- Generator: Adobe Illustrator 16.0.0, SVG Export Plug-In . SVG Version: 6.00 Build 0)  -->
<!DOCTYPE svg PUBLIC "-//W3C//DTD SVG 1.1//EN" "http://www.w3.org/Graphics/SVG/1.1/DTD/svg11.dtd">
<svg version="1.1" id="Capa_1" xmlns="http://www.w3.org/2000/svg" xmlns:xlink="http://www.w3.org/1999/xlink" x="0px" y="0px" width="893px" height="314.5px" viewBox="0 0 893 314.5" enable-background="new 0 0 893 314.5" xml:space="preserve">
<text id="title" transform="matrix(1 0 0 1 23.5654 39)" fill="#1D1D1B" font-family="'Roboto-Black'" font-size="30">Necesidades en I+D</text>

<g id="box1">
	<rect y="56.912" opacity="0.4" fill="#D7AE1A" width="898" height="75.088"/>
	<text transform="matrix(1 0 0 1 33.48 87.4785)"><tspan id="tbox1a" x="0" y="0" fill="#AF9959" font-family="'Roboto-Bold'" font-size="19">Mejores herramientas de diagnóstico: </tspan><tspan  id="tbox1b" x="0" y="20" fill="#AF9959" font-family="'Roboto-Bold'" font-size="17">más simples, más sensibles y más específicas</tspan></text>
</g>

<g id="box2">
	<rect x="-5" y="140.412" opacity="0.4" fill="#008EAB" stroke="#008EAB" stroke-width="0.8931" stroke-miterlimit="10" width="898" height="75.088"/>
	<text transform="matrix(1 0 0 1 841.1133 170)"><tspan id="tbox2a" x="0" y="0" fill="#00B0E9" font-family="'Roboto-Bold'" font-size="19" text-anchor="end">Nuevos medicamentos o mejores combinaciones:</tspan><tspan id="tbox2b" text-anchor="end" x="0" y="20.4" fill="#00B0E9" font-family="'Roboto-Bold'" font-size="17">para los pacientes crónicos adultos</tspan></text>
</g>

<g id="box3">
	<rect y="225.956" opacity="0.4" fill="#D7AE1A" width="898" height="75.087"/>
	<text transform="matrix(1 0 0 1 33.48 257.4785)"><tspan id="tbox3a" x="0" y="0" fill="#AF9959" font-family="'Roboto-Bold'" font-size="19">Desarrollo de biomarcadores: </tspan><tspan id="tbox3b" x="0" y="20" fill="#AF9959" font-family="'Roboto-Bold'" font-size="17">para saber si un paciente responde al tratamiento y/o se ha curado</tspan></text>
</g>

<path d="M72.018,221.824"/>
<g>
	<circle fill="#00B0E9" cx="194.634" cy="149.651" r="5.661"/>
	<path fill="#00B0E9" d="M242.752,149.65h-28.305c-1.557,0-2.83,1.274-2.83,2.832v11.321h-5.661v2.831h5.661v11.322   c0,1.556,1.273,2.83,2.83,2.83h28.305c1.557,0,2.831-1.274,2.831-2.83v-25.474C245.583,150.924,244.309,149.65,242.752,149.65z    M242.752,177.956h-28.305v-25.474h28.305V177.956z"/>
	<path fill="#00B0E9" d="M228.6,175.125c5.199-5.199,10.342-8.038,11.154-12.847c0.1-0.419,0.167-0.855,0.167-1.304   c0-3.126-2.536-5.662-5.66-5.662c-3.126,0-5.661,2.536-5.661,5.662c0-3.126-2.537-5.662-5.662-5.662   c-3.124,0-5.66,2.536-5.66,5.662c0,0.449,0.064,0.885,0.166,1.304C218.257,167.086,223.4,169.925,228.6,175.125z"/>
	<path fill="#00B0E9" d="M197.464,163.802h8.491c0-3.113-2.547-5.66-5.661-5.66h-11.322c-3.113,0-5.662,2.547-5.662,5.66v16.983   c0,3.114,2.548,5.662,5.662,5.662v19.813c0,1.558,1.274,2.831,2.83,2.831h5.662c1.557,0,2.831-1.273,2.831-2.831v-19.813   c3.113,0,5.661-2.548,5.661-5.662v-14.152h-8.491V163.802z"/>
</g>
<path fill="#F59C00" d="M724.419,72.194h-10.963V61.236c0-0.799-0.647-1.446-1.446-1.446h-12.4c-0.8,0-1.445,0.646-1.445,1.446  v10.958h-10.965c-0.798,0-1.446,0.648-1.446,1.447v12.406c0,0.382,0.152,0.751,0.424,1.022c0.271,0.272,0.638,0.423,1.022,0.423l0,0  l10.965-0.004v10.974c0,0.799,0.646,1.446,1.445,1.446h12.399c0.798,0,1.446-0.646,1.446-1.446V87.487h10.963  c0.799,0,1.446-0.647,1.446-1.446V73.641C725.865,72.842,725.219,72.194,724.419,72.194z M722.972,84.594H712.01  c-0.797,0-1.444,0.648-1.444,1.447v10.975h-9.51V86.041c0-0.383-0.151-0.751-0.422-1.023c-0.271-0.271-0.64-0.424-1.023-0.424  h-0.001l-10.963,0.005v-9.512h10.964c0.799,0,1.445-0.647,1.445-1.446V62.682h9.51v10.959c0,0.799,0.647,1.446,1.444,1.446h10.962  V84.594z M759.057,123.94l-20.176-20.178c-0.542-0.543-1.505-0.543-2.046,0l-2.533,2.535l-5.408-5.412  c5.066-5.557,8.16-12.943,8.16-21.038c0-17.227-14.015-31.243-31.241-31.243c-17.229,0-31.246,14.016-31.246,31.243  c0,17.231,14.018,31.25,31.246,31.25c8.097,0,15.481-3.097,21.034-8.167l5.41,5.412l-2.561,2.562c-0.565,0.565-0.565,1.481,0,2.045  l20.174,20.177c0.271,0.271,0.637,0.423,1.022,0.423c0.385,0,0.751-0.152,1.023-0.423l7.143-7.143  C759.622,125.42,759.622,124.505,759.057,123.94z M705.812,108.205c-15.634,0-28.354-12.721-28.354-28.357  c0-15.633,12.72-28.35,28.354-28.35c15.633,0,28.349,12.717,28.349,28.35C734.16,95.484,721.444,108.205,705.812,108.205z   M750.892,130.059l-18.128-18.132l2.524-2.526c0.014-0.012,0.029-0.016,0.042-0.027c0.013-0.012,0.017-0.029,0.028-0.042l2.5-2.501  l18.132,18.132L750.892,130.059z"/>
<g>
	<path fill="#F59C00" d="M673.298,230.107h26.149c0.51,0,0.907,0.41,0.907,0.908v1.723c0,0.503-0.4,0.907-0.907,0.907h-2.724v51.399   c0,5.653-4.645,10.304-10.301,10.304l0,0c-5.757,0-10.397-4.65-10.397-10.304v-51.399H673.3c-0.506,0-0.909-0.404-0.909-0.907   v-1.723C672.387,230.515,672.792,230.107,673.298,230.107L673.298,230.107z M740.152,260.097h15.043v-26.046h-15.144   L740.152,260.097L740.152,260.097z M678.848,234.051v37.662h15.047v-37.662H678.848L678.848,234.051z M703.489,230.107h26.051   c0.511,0,0.911,0.41,0.911,0.908v1.723c0,0.503-0.402,0.907-0.911,0.907h-2.722v51.399c0,5.653-4.647,10.304-10.305,10.304l0,0   c-5.65,0-10.302-4.65-10.302-10.304v-51.399h-2.723c-0.506,0-1.013-0.404-1.013-0.907v-1.723   C702.477,230.515,702.983,230.107,703.489,230.107L703.489,230.107z M708.94,234.051v37.662h0.104v6.263h15.052v-17.879l0,0   v-26.046H708.94L708.94,234.051z M734.594,230.107h26.055c0.605,0,1.009,0.41,1.009,0.908v1.723c0,0.503-0.403,0.907-1.009,0.907   h-2.728v51.399c0,5.653-4.648,10.304-10.301,10.304l0,0c-5.656,0-10.296-4.65-10.296-10.304v-51.399h-2.727   c-0.507,0-0.908-0.404-0.908-0.907v-1.723C733.686,230.515,734.089,230.107,734.594,230.107z"/>
</g>
<path fill-rule="evenodd" clip-rule="evenodd" fill="#00B0E9" d="M124.779,177.742c6.183,0,11.625,1.851,14.692,4.624  c-13.761,0.566-23.843,3.031-30.981,8.53c-0.673-1.043-1.037-2.167-1.037-3.339C107.453,182.151,115.235,177.742,124.779,177.742  L124.779,177.742z M131.015,161.804c0.255,1.349-0.39,2.704-1.105,3.952c-14.848-9.173-30.092-10.916-44.2-10.209  C93.447,145.485,127.456,143.135,131.015,161.804L131.015,161.804z M131.199,168.47c0,2.309-0.786,4.499-2.199,6.474  c-0.835-0.096-1.689-0.165-2.557-0.202c3.006-2.939,4.685-6.459,4.685-9.874C131.128,166.092,131.199,167.252,131.199,168.47  L131.199,168.47z M104.049,183.954c-12.018-0.919-21.395-7.52-21.395-15.485c0-1.216,0.071-2.378,0.071-3.601  c0,7.916,9.023,16.185,22.699,16.857C104.843,182.433,104.378,183.18,104.049,183.954L104.049,183.954z M127.884,168.311  c-4.15,4.006-11.994,6.725-20.959,6.725c-13.265,0-24.087-5.946-24.087-13.232c0-1.124,0.258-2.217,0.74-3.26  C101.878,157.691,116.464,161.398,127.884,168.311L127.884,168.311z M107.371,189.83c0,17.484,34.82,17.771,34.82,0.002  C143.713,210.896,105.299,209.82,107.371,189.83L107.371,189.83z M141.164,184.488c0.691,1.056,0.942,1.88,0.942,3.068  c0,5.406-7.784,9.814-17.327,9.814c-6.388,0-11.473-1.656-14.479-4.584C118.752,188.244,128.097,186.034,141.164,184.488  L141.164,184.488z"/>

<text id="fuente" transform="matrix(1 0 0 1 23.2769 311.5)" fill="#1D1D1B" font-family="'Roboto-Italic'" font-size="8">Fuente: Coalición Global de la Enfermedad de Chagas: Rompiendo el Silencio, una oportunidad para los pacientes de Chagas.</text>
</svg>