<?xml version="1.0" encoding="UTF-8"?>
<!-- Generator: Adobe Illustrator 16.0.0, SVG Export Plug-In . SVG Version: 6.00 Build 0)  -->
<!DOCTYPE svg PUBLIC "-//W3C//DTD SVG 1.1//EN" "http://www.w3.org/Graphics/SVG/1.1/DTD/svg11.dtd">
<svg version="1.1" id="Capa_1" xmlns="http://www.w3.org/2000/svg" xmlns:xlink="http://www.w3.org/1999/xlink" x="0px" y="0px" width="893px" height="359.131px" viewBox="0 0 893 359.131" enable-background="new 0 0 893 359.131" xml:space="preserve">
<rect x="-2.033" y="52.132" opacity="0.5" fill="#008EAB" enable-background="new    " width="446.191" height="306.999"/>
<rect x="444.158" y="52.132" opacity="0.6" fill="#00B0E9" enable-background="new    " width="448.842" height="306.999"/>
<text id="title" transform="matrix(1 0 0 1 16.9546 37.4495)" font-family="'Roboto-Bold'" font-size="30">Obstáculos para frenar la transmisión</text>
<text transform="matrix(1 0 0 1 441.8345 287.6907)" font-family="'Roboto-Regular'" font-size="14" text-anchor="middle">FALTA DE DIAGNÓSTICO</text>
<text transform="matrix(1 0 0 1 193.0947 185.968)" fill="#008EAB" font-family="'Roboto-Regular'" font-size="14">Picadura</text>
<text transform="matrix(1 0 0 1 170.6357 210.968)" fill="#008EAB" font-family="'Roboto-Regular'" font-size="14">Contaminación</text>
<text transform="matrix(1 0 0 1 147.8755 225.968)" fill="#008EAB" font-family="'Roboto-Regular'" font-size="14">DE BEBIDAS O ALIMENTOS</text>

<text transform="matrix(1 0 0 1 453.4473 75.0286)" font-family="'Roboto-Bold'" font-size="17" text-anchor="start">TRANSMISIÓN </text>
<text transform="matrix(1 0 0 1 453.4473 90.0286)" font-family="'Roboto-Bold'" font-size="17" text-anchor="start">NO VECTORIAL </text>


<rect x="136.52" y="391.238" fill="none" width="562.667" height="105.666"/>
<text transform="matrix(1 0 0 1 136.5195 399.7571)" font-family="'MyriadPro-Regular'" font-size="12">del vector (resistencia a insecticidas, invasión de zonas periurbanas) salen dos flechas. una que pica al humano, </text>
<text transform="matrix(1 0 0 1 136.5195 414.1575)" font-family="'MyriadPro-Regular'" font-size="12">otra que lo contamina via alimentos o bebidas. Ese humano no es detectado (no detección). De él (mejor si es </text>
<text transform="matrix(1 0 0 1 136.5195 428.5588)" font-family="'MyriadPro-Regular'" font-size="12">ella) salen tres flechas. Una hacia el embarazo (no tratamiento), otra hacia donación de sangre (no cribado) y otra </text>
<text transform="matrix(1 0 0 1 136.5195 442.9573)" font-family="'MyriadPro-Regular'" font-size="12">hacia donación de órganos (no cribado).    </text>
<text transform="matrix(1 0 0 1 136.5195 457.3586)" font-family="'MyriadPro-Regular'" font-size="12">Todas las fases del ciclo de transmisión son válidas para los países endémicos. La parte sin el vector es válida para </text>
<text transform="matrix(1 0 0 1 136.5195 471.7571)" font-family="'MyriadPro-Regular'" font-size="12">países no endémicos.</text>
<g id="vinchuca">
	<path d="M70.978,200.353c-0.71,0.005-0.764-0.33-0.535-0.919c0.489-1.278,0.514-2.647,0.698-3.983   c0.184-1.375,0.401-2.74,0.551-4.115c0.271-2.405,0.685-4.805,0.656-7.239c-0.004-0.204-0.038-0.365-0.196-0.438   c-0.221-0.095-0.334,0.1-0.388,0.254c-0.113,0.305-0.343,0.346-0.593,0.264c-0.263-0.084-0.489,0.01-0.731,0.059   c-1.324,0.271-2.54,0.86-3.797,1.324c-1.044,0.385-2.11,0.676-3.171,0.996c-1.111,0.34-1.863,1.286-1.833,2.46   c0.025,1.061,0.201,2.107,0.234,3.164c0.042,1.036,0.163,2.11-0.054,3.102c-0.292,1.38,0.417,2.466,0.739,3.653   c0.668,2.441,1.433,4.862,1.888,7.355c0.1,0.53,0.054,1.089,0.117,1.627c0.05,0.387-0.33,0.379-0.468,0.596   c-1.182,1.825-2.84,3.229-4.294,4.816c-1.04,1.134-2.063,2.291-3.116,3.421c-1.934,2.078-3.889,4.138-5.823,6.216   c-1.162,1.257-2.364,2.477-3.367,3.872c-0.125,0.176-0.313,0.49-0.584,0.314c-0.359-0.224-0.626-0.094-1.036,0.248   c0.242-0.873,0.823-1.253,1.287-1.642c1.408-1.182,2.502-2.665,3.86-3.894c1.315-1.187,2.552-2.479,3.726-3.808   c1.809-2.028,3.789-3.891,5.602-5.913c0.789-0.879,1.621-1.736,2.427-2.602c0.447-0.474,0.651-0.917,0.217-1.643   c-0.543-0.891-0.618-1.988-0.689-3.032c-0.087-1.379-0.489-2.696-0.727-4.049c-0.034-0.19-0.104-0.438-0.338-0.435   c-0.238,0.003-0.259,0.278-0.322,0.447c-0.643,1.783-1.291,3.566-2.239,5.222c-1.542,2.711-3.237,5.292-5.815,7.197   c-2.185,1.611-4.716,2.464-7.18,3.482c-0.201,0.079-0.451,0.146-0.656,0.106c-0.51-0.104-0.84,0.09-1.116,0.483   c-0.288,0.421-0.789,0.479-1.199,0.688c-0.869,0.455-1.746,0.898-2.636,1.308c-0.334,0.154-0.885,0.251-0.911-0.237   c-0.046-0.99-0.535-1.768-0.973-2.588c-0.042-0.079-0.184-0.174-0.08-0.244c0.79-0.553,0.18-1.357,0.305-2.026   c0.083-0.444-0.572-0.971-0.765-1.543c-0.764-2.32-1.32-4.655-1.178-7.143c0.117-2.063,0.192-4.125,0.79-6.118   c0.593-1.977,1.061-4.008,2.109-5.818c0.518-0.897,1.094-1.763,1.658-2.671c-0.459-0.163-0.806,0.064-1.053,0.215   c-1.646,0.994-3.408,1.817-5.208,2.37c-1.65,0.508-1.504,1.759-1.729,2.855c-0.605,2.987-1.074,6.003-1.633,9.002   c-0.593,3.187-1.278,6.356-1.834,9.553c-0.242,1.412-0.351,2.856-0.267,4.303c-0.242,0.063-0.455-0.167-0.66,0.037   c-1.002,1.034-2.226,1.878-2.844,3.242c-0.176,0.38-0.644,0.083-0.811,0.455c0.117-0.614,0.438-1.107,0.793-1.566   c0.706-0.917,1.721-1.539,2.41-2.48c0.067-0.095,0.268-0.2,0.251-0.246c-0.472-1.362,0.455-2.503,0.576-3.776   c0.226-2.239,0.902-4.403,1.358-6.607c0.718-3.496,1.412-6.997,1.984-10.522c0.209-1.286,0.518-2.559,0.785-3.834   c0.025-0.121,0.101-0.251-0.012-0.345c-0.585-0.502-0.034-0.691,0.267-0.863c3.196-1.796,6.408-3.555,9.908-4.694   c0.129-0.04,0.205-0.103,0.297-0.188c1.595-1.566,3.274-3.012,5.342-3.964c0.744-0.344,1.437-0.812,1.834-1.639   c0.414-0.867-0.209-1.486-0.439-2.158c-0.401-1.152-0.622-2.356-1.032-3.51c-0.075-0.2-0.121-0.42-0.213-0.617   c-0.305-0.68-0.911-1.241-0.756-2.102c0.046-0.234-0.155-0.456-0.326-0.646c-0.113-0.122-0.196-0.284-0.246-0.439   c-0.083-0.238,0.48-0.614-0.167-0.735c-0.321-0.061-0.535,0.211-0.823,0.254c-0.159-0.048-0.234-0.12-0.075-0.259   c0.489-0.479,1.057-0.576,1.742-0.62c1.211-0.077,1.048,0.958,1.286,1.511c0.794,1.805,1.416,3.682,2.105,5.53   c0.054,0.152,0.088,0.402,0.317,0.325c0.247-0.079,0.384-0.282,0.338-0.581c-0.209-1.521-0.138-1.638,1.312-2.234   c1.266-0.522,1.203-0.515,0.978-1.83c-0.209-1.278-0.25-2.582-0.422-3.864c-0.075-0.568-0.063-1.19-0.556-1.638   c-0.133-0.125-0.121-0.294-0.008-0.477c0.25-0.417,0.134-0.894,0.046-1.307c-0.075-0.361-0.167-0.679-0.008-1.036   c0.242-0.547-0.275-0.505-0.514-0.543c-1.249-0.18-2.506-0.34-3.764-0.453c-1.533-0.136-3.053-0.361-4.583-0.568   c-0.806-0.109-1.633-0.12-2.448-0.182c-0.242-0.017-0.584,0.125-0.522-0.372c0.021-0.134-0.188-0.228-0.338-0.251   c-1.153-0.171-2.072-0.952-3.187-1.229c-0.18-0.044-0.305-0.278-0.577-0.541c1.437,0.384,2.606,0.965,3.835,1.381   c1.207,0.407,2.473,0.662,3.743,0.8c2.765,0.309,5.543,0.56,8.283,1.013c0.793,0.132,1.32,0.471,1.562,1.368   c0.581,2.189,0.89,4.415,1.161,6.654c0.067,0.509,0.23,1.015,0.146,1.545c-0.017,0.149,0.063,0.309,0.226,0.358   c0.175,0.057,0.275-0.072,0.351-0.209c0.464-0.828,0.898-1.686,1.993-1.84c0.276-1.156,0.668-1.167,1.287-0.178   c0.146,0.234,0.405-0.038,0.468-0.267c0.159-0.614-0.163-1.28,0.184-1.889c0.021-0.042-0.117-0.213-0.213-0.283   c-0.53-0.438-0.526-0.994-0.309-1.559c0.247-0.635,0.873-0.844,1.42-0.714c0.727,0.171,0.936-0.167,1.094-0.712   c0.075-0.266,0.163-0.528,0.213-0.796c0.372-1.955,1.003-3.841,1.445-5.777c0.021-0.088-0.021-0.196-0.033-0.292   c-0.008-0.1,0.029-0.163,0.125-0.191c0.417,0.52,0.906,0.998,0.488,1.774c-0.167,0.31-0.2,0.691-0.351,1.262   c0.639-0.595,0.927-1.17,1.224-1.737c0.297-0.583,0.765-0.7,1.437-0.363c0.644,0.324,0.877,0.827,0.61,1.378   c-0.368,0.744-0.501,1.558-0.835,2.496c0.66-0.267,0.948-0.731,1.157-1.188c0.376-0.837,0.986-1.154,1.859-1.055   c0.046,0.086,0.025,0.145-0.067,0.178c-0.618,0.999-1.83,1.564-2.243,2.617c-0.497,1.26-1.55,2.078-2.114,3.252   c-0.171,0.364-0.238,0.577,0.196,0.827c0.56,0.324,0.827,0.886,0.656,1.537c-0.188,0.673-0.63,1.124-1.353,1.237   c-0.343,0.054-1.784,1.281-1.805,1.581c-0.029,0.402,0.28,0.424,0.551,0.369c0.268-0.059,0.531-0.066,0.644,0.188   c0.113,0.25-0.163,0.388-0.322,0.526c-0.15,0.129-0.242,0.259-0.163,0.446c0.318,0.744,0.155,1.454-0.083,2.177   c-0.054,0.18-0.234,0.464,0.021,0.613c0.192,0.107,0.359-0.129,0.526-0.221c2.577-1.385,5.029-2.999,7.761-4.089   c0.368-0.15,0.463-0.101,0.79,0.163c1.75,1.422,3.2,3.146,4.854,4.662c1.788,1.625,3.53,3.304,5.426,4.8   c0.802,0.631,1.817,0.969,2.652,1.767c-0.902-0.088-1.374-0.806-2.118-1.011c-0.71-0.201-1.253-0.773-2.051-0.939   c-0.539-0.108-0.985-0.778-1.433-1.235c-1.951-2.006-3.885-4.02-5.819-6.035c-0.321-0.336-0.777-0.533-1.011-0.971   c-0.046-0.083-0.209-0.108-0.317-0.159c-0.296,0.781-1.228,0.487-1.684,1.011c-0.894,1.036-2.264,1.274-3.371,1.968   c-1.157,0.719-2.327,1.45-3.605,1.946c-0.497,0.193-0.572,0.453-0.363,0.902c0.255,0.577,0.401,1.185,0.484,1.809   c0.083,0.674-0.083,1.184-0.819,1.358c-0.071,0.021-0.142,0.058-0.213,0.072c-0.263,0.064-0.296,0.312-0.238,0.475   c0.08,0.251,0.289,0.066,0.439,0.021c1.637-0.521,3.271-1.067,4.917-1.563c0.685-0.204,1.399-0.31,2.109-0.43   c0.869-0.148,1.562,0.479,1.562,1.407c0.004,1.658-0.263,3.291-0.417,4.941c-0.188,1.979-0.422,3.958-0.614,5.938   c-0.15,1.551-0.263,3.104-0.401,4.655c-0.029,0.345-0.117,0.685-0.301,0.984C71.061,200.453,71.007,200.435,70.978,200.353z"/>
</g>
<g id="embarazo">
	<path d="M721.947,101.885c0.274-0.201,0.542-0.418,0.79-0.667c2.603-2.601,2.603-6.821,0.001-9.422l-5.008-5.007h-10.037h-5.201   c-0.138,0-0.271,0.008-0.405,0.021l0,0c-1.899,0.203-3.38,1.81-3.38,3.762v16.673c0,1.955,1.479,3.561,3.38,3.764   c0.134,0.014,0.269,0.021,0.405,0.021h11.896c2.091,0,3.784-1.694,3.784-3.785s-1.694-3.784-3.784-3.784h-8.109V92.578h1.622v9.26   h6.487c2.982,0,5.407,2.426,5.407,5.407s-2.425,5.407-5.407,5.407h-11.896c-0.138,0-0.271-0.012-0.405-0.021v11.375H719.3   c6.197,0,11.22-5.023,11.22-11.219C730.518,107.504,726.864,103.075,721.947,101.885z"/>
	<circle cx="709.266" cy="76.966" r="8.178"/>
</g>
<g id="line_0">
	<line fill="none" x1="89.55" y1="193.738" x2="366.014" y2="193.738"/>
	<g>
		<polygon points="89.55,193.738 355.651,191.281 355.651,196.195   "/>
		<g>
			<polygon points="350.776,200.166 353.507,193.738 350.776,187.31 366.014,193.738    "/>
		</g>
	</g>
</g>
<g>
	<g id="line_1">
		<line fill="none" x1="490.55" y1="191.569" x2="688.55" y2="100.681"/>
		<g>
			<path d="M490.425,191.296c0,0,11.341-5.521,28.354-13.802c8.519-4.113,18.428-8.976,29.102-14.063     c10.663-5.109,22.036-10.56,33.41-16.01c5.683-2.733,11.366-5.467,16.96-8.157c5.585-2.711,11.081-5.38,16.399-7.962     c5.319-2.58,10.511-4.97,15.443-7.209c4.943-2.22,9.643-4.266,13.995-6.116c4.339-1.884,8.346-3.545,11.897-5.017     c3.543-1.491,6.664-2.724,9.224-3.758c2.558-1.041,4.582-1.825,5.962-2.362c1.379-0.538,2.115-0.825,2.115-0.825l1.268,2.762     c0,0-0.696,0.371-2.004,1.066c-1.307,0.696-3.222,1.72-5.678,2.981c-2.455,1.266-5.423,2.828-8.863,4.543     c-3.432,1.733-7.304,3.689-11.561,5.752c-4.241,2.095-8.855,4.322-13.763,6.625c-4.914,2.28-10.109,4.658-15.534,7.011     c-5.427,2.35-11.031,4.778-16.729,7.246c-5.688,2.488-11.465,5.015-17.242,7.542c-11.548,5.072-23.096,10.143-33.921,14.896     c-10.814,4.777-20.962,9.122-29.635,12.899c-17.37,7.501-28.95,12.501-28.95,12.501L490.425,191.296z"/>
			<g>
				<polygon points="688.55,100.681 671.801,118.568 672.827,107.899 664.068,101.723     "/>
			</g>
		</g>
	</g>
	<g id="line_2">
		<line fill="none" x1="490.55" y1="191.569" x2="688.55" y2="282.457"/>
		<g>
			<path d="M490.675,191.296c0,0,11.58,5,28.95,12.501c8.673,3.778,18.819,8.123,29.635,12.899     c10.825,4.755,22.373,9.826,33.921,14.896c5.777,2.527,11.556,5.055,17.242,7.543c5.697,2.467,11.303,4.896,16.729,7.246     c5.425,2.352,10.62,4.729,15.535,7.01c4.905,2.303,9.521,4.529,13.762,6.625c4.257,2.063,8.129,4.019,11.561,5.752     c3.44,1.715,6.408,3.277,8.863,4.543c2.456,1.263,4.371,2.285,5.678,2.982c1.308,0.692,2.004,1.063,2.004,1.063l-1.268,2.763     c0,0-0.736-0.287-2.115-0.824c-1.38-0.537-3.404-1.32-5.962-2.361c-2.56-1.037-5.681-2.268-9.224-3.76     c-3.553-1.471-7.56-3.133-11.897-5.016c-4.354-1.853-9.052-3.896-13.995-6.115c-4.934-2.24-10.124-4.631-15.443-7.211     c-5.318-2.582-10.814-5.25-16.399-7.961c-5.594-2.691-11.277-5.425-16.96-8.158c-11.374-5.449-22.747-10.9-33.41-16.009     c-10.674-5.087-20.583-9.948-29.102-14.063c-17.013-8.281-28.354-13.802-28.354-13.802L490.675,191.296z"/>
			<g>
				<polygon points="688.55,282.457 664.068,281.418 672.827,275.238 671.8,264.57     "/>
			</g>
		</g>
	</g>
	<g id="line_3">
		<line fill="none" x1="491.301" y1="191.569" x2="688.55" y2="191.496"/>
		<g>
			<path d="M491.301,191.297c0,0,11.418-0.263,28.545-0.658c8.563-0.17,18.555-0.431,29.258-0.589     c10.704-0.181,22.122-0.374,33.54-0.566c5.709-0.104,11.419-0.209,17.038-0.313c5.619-0.123,11.149-0.245,16.502-0.362     c5.354-0.115,10.526-0.123,15.433-0.104c4.906,0.039,9.545,0.128,13.827,0.248c4.28,0.087,8.207,0.231,11.686,0.361     c3.479,0.109,6.512,0.274,9.01,0.388c2.497,0.108,4.46,0.228,5.799,0.307c1.338,0.078,2.052,0.119,2.052,0.119l0.001,2.747     c0,0-0.714,0.042-2.053,0.121c-1.338,0.08-3.3,0.199-5.798,0.311c-2.497,0.115-5.529,0.282-9.009,0.395     c-3.479,0.132-7.404,0.279-11.686,0.37c-4.282,0.123-8.921,0.216-13.826,0.259c-4.906,0.021-10.08,0.018-15.433-0.094     c-5.354-0.112-10.884-0.23-16.503-0.35c-5.619-0.099-11.328-0.2-17.037-0.3c-11.418-0.185-22.836-0.368-33.541-0.541     c-10.704-0.15-20.695-0.404-29.26-0.568c-17.127-0.382-28.545-0.636-28.545-0.636V191.297L491.301,191.297z"/>
			<g>
				<polygon points="688.55,191.496 668.034,199.888 672.9,191.501 668.028,183.121     "/>
			</g>
		</g>
	</g>
</g>
<g>
	<g>
		<g id="woman">
			<g>
				<path d="M449.229,193.999l10.289-30.432c1.394-5.948,6.73-10.378,13.098-10.378h17.572c5.461,0,10.156,3.265,12.263,7.937v0.006      c0.354,0.771,0.637,1.593,0.828,2.436l10.289,30.432c0.868,2.587-0.515,5.394-3.095,6.27c-2.588,0.877-5.396-0.515-6.272-3.104      l-9.492-28.073h-1.617l16.098,47.61h-14.874v40.504c0,3.344-2.717,6.053-6.054,6.053c-3.353,0-6.063-2.709-6.063-6.053v-40.504      h-1.593v40.504c0,3.344-2.717,6.053-6.062,6.053s-6.062-2.709-6.062-6.053v-40.504h-14.865l16.096-47.61h-1.624l-9.495,28.073      c-0.875,2.59-3.674,3.98-6.263,3.104C449.744,199.392,448.361,196.585,449.229,193.999z"/>
			</g>
			<g>
				<path d="M481.403,151.091c-7.484,0-13.539-6.063-13.539-13.539c0-7.484,6.055-13.546,13.539-13.546      c7.475,0,13.539,6.063,13.539,13.546C494.942,145.03,488.877,151.091,481.403,151.091z"/>
			</g>
		</g>
	</g>
	<g>
		<g id="man">
			<g>
				<path d="M405.215,149.676c-6.979,0-12.639-5.659-12.639-12.646c0-6.979,5.661-12.638,12.639-12.638      c6.977,0,12.638,5.659,12.638,12.638C417.853,144.017,412.192,149.676,405.215,149.676z"/>
			</g>
			<g>
				<path d="M378.033,161.365c0.491-5.482,5.042-9.799,10.653-9.799h6.592h6.592h6.897h6.592h2.098h4.285      c5.611,0,10.162,4.316,10.652,9.799h0.098v35.809c0,3.08-2.501,5.58-5.58,5.58c-3.087,0-5.587-2.5-5.587-5.58v-26.442      c-0.314,0.063-0.644,0.113-0.981,0.113h-0.925c0.065,0.378,0.113,0.755,0.113,1.157v84.255c0,3.721-3.015,6.736-6.737,6.736      c-3.722,0-6.745-3.017-6.745-6.736v-38.75h-1.672v38.75c0,3.721-3.023,6.736-6.745,6.736c-3.722,0-6.746-3.017-6.746-6.736      v-84.255c0-0.402,0.056-0.779,0.121-1.157h-1.905v26.121c0,3.078-2.501,5.578-5.588,5.578c-3.079,0-5.58-2.5-5.58-5.578v-35.599      h0.098V161.365z"/>
			</g>
		</g>
	</g>
</g>
<text transform="matrix(1 0 0 1 436.4492 330.6946)" font-family="'Roboto-Regular'" font-size="17" text-anchor="end">PAÍSES ENDEMICOS</text>
<text transform="matrix(1 0 0 1 453.4473 330.6946)" font-family="'Roboto-Regular'" font-size="17">PAÍSES ENDÉMICOS Y NO ENDÉMICOS</text>
<rect x="746.217" y="85.571" fill="none" width="171.164" height="36"/>
<text transform="matrix(1 0 0 1 746.2168 94.5706)" font-family="'Roboto-Bold'" font-size="12">EMBARAZO </text>
<text transform="matrix(1 0 0 1 746.2168 108.9709)" font-family="'Roboto-Regular'" font-size="12">SIN TRATAMIENTO PREVIO</text>
<rect x="16.955" y="232.871" fill="none" width="117.905" height="41.94"/>
<text transform="matrix(1 0 0 1 16.9546 241.8704)" font-family="'Roboto-Bold'" font-size="12">VINCHUCA </text>
<text transform="matrix(1 0 0 1 16.9546 256.2708)" font-family="'Roboto-Regular'" font-size="12">REISTENCIA A</text>
<text transform="matrix(1 0 0 1 16.9546 270.6711)" font-family="'Roboto-Regular'" font-size="12">INSECTICIDAS</text>
<rect x="746.217" y="173.496" fill="none" width="128" height="36"/>
<text transform="matrix(1 0 0 1 746.2168 182.4954)" font-family="'Roboto-Bold'" font-size="12">DONACIÓN DE SANGRE</text>
<text transform="matrix(1 0 0 1 746.2168 196.8958)" font-family="'Roboto-Regular'" font-size="12">SIN CRIBAR</text>
<rect x="746.217" y="264.457" fill="none" width="138.666" height="35.999"/>
<text transform="matrix(1 0 0 1 746.2168 273.4563)" font-family="'Roboto-Bold'" font-size="12">DONACIÓN DE ÓRGANOS</text>
<text transform="matrix(1 0 0 1 746.2168 287.8557)" font-family="'Roboto-Regular'" font-size="12">SIN CRIBAR</text>

<text transform="matrix(1 0 0 1 438.6377 75.0286)" font-family="'Roboto-Bold'" font-size="17" text-anchor="end">TRANSMISIÓN </text>
<text transform="matrix(1 0 0 1 438.6377 90.0286)" font-family="'Roboto-Bold'" font-size="17" text-anchor="end">POR VECTOR </text>
<path fill="#008EAB" d="M244.385,263.542c1.216-2.895,0.749-5.976,0.052-7.726c-0.182-0.459-0.618-0.768-1.111-0.788  c-1.877-0.081-4.946,0.497-7.28,2.608c-0.788-0.461-1.703-0.729-2.679-0.729c-0.148,0-0.294,0.009-0.44,0.021  c-0.127-0.808-0.33-1.526-0.559-2.102c-0.183-0.458-0.618-0.768-1.112-0.788c-2.271-0.104-6.283,0.767-8.63,4.143  c-1.102-2.34-3.041-3.953-4.542-4.756v-4.647c0-3.508-2.042-6.706-5.163-8.217v-2.935h0.065c0.346,0,0.627-0.281,0.627-0.627v-3.137  c0-0.347-0.282-0.627-0.628-0.627h-8.152c-0.346,0-0.627,0.28-0.627,0.627V237c0,0.346,0.281,0.627,0.627,0.627h0.146v2.935  c-3.121,1.511-5.162,4.708-5.162,8.217v25.847c0,0.69,0.561,1.254,1.254,1.254h7.82h7.938h24.706c0.591,0,1.101-0.412,1.226-0.988  l2.177-10.033c0.08-0.37-0.012-0.758-0.25-1.054C244.603,263.697,244.498,263.614,244.385,263.542z M231.722,259.949  c0.38-0.274,0.83-0.457,1.318-0.514c0.107-0.013,0.215-0.021,0.325-0.021c0.368,0,0.719,0.072,1.041,0.202  c0.395,0.157,0.746,0.401,1.03,0.709c0.353,0.382,0.602,0.859,0.701,1.393c0.031,0.168,0.05,0.342,0.05,0.519  c0,0.391-0.08,0.763-0.223,1.101h-0.353h-1.289h-1.262h-1.121h-1.172c-0.039-0.093-0.073-0.188-0.102-0.285  c-0.079-0.258-0.121-0.531-0.121-0.813C230.543,261.295,231.01,260.461,231.722,259.949z M223.474,262.631  c0.923-4.924,5.002-5.872,6.812-6.049c0.079,0.319,0.157,0.72,0.208,1.172c-1.476,0.949-2.459,2.603-2.459,4.482  c0,0.377,0.042,0.745,0.116,1.101h-1.921l2.61-4.273c0.181-0.296,0.087-0.683-0.208-0.861c-0.295-0.183-0.682-0.089-0.861,0.207  l-3.012,4.929h-1.234l-0.108-0.076C223.442,263.048,223.461,262.838,223.474,262.631z M216.83,256.724  c0.214-0.295,0.423-0.548,0.607-0.75c0.193,0.128,0.413,0.286,0.647,0.473c1.438,1.151,3.384,3.406,2.787,6.892h-1.922l-0.864-4.415  l-0.027-0.133c-0.066-0.342-0.396-0.563-0.736-0.495c-0.253,0.05-0.439,0.245-0.491,0.48c-0.018,0.082-0.021,0.168-0.004,0.255  l0.004,0.017l0.84,4.291h-0.84h-0.375h-0.773c-0.038-0.111-0.074-0.222-0.106-0.33c-0.062-0.213-0.116-0.422-0.157-0.628  c-0.131-0.671-0.149-1.311-0.089-1.907c0.044-0.438,0.129-0.857,0.246-1.251c0.066-0.222,0.139-0.437,0.221-0.642  C216.086,257.85,216.465,257.225,216.83,256.724z M206.397,263.382c-0.256,0.066-0.489,0.211-0.659,0.422  c-0.238,0.296-0.331,0.684-0.25,1.054l1.847,8.514h-5.011V248.78c0-2.761,1.746-5.257,4.342-6.213  c0.493-0.181,0.821-0.65,0.821-1.177v-3.762h2.924v3.762c0,0.526,0.328,0.996,0.821,1.178c2.597,0.955,4.342,3.451,4.342,6.212  v5.494c-0.624,0.685-1.256,1.56-1.762,2.584c-0.721-0.365-1.534-0.576-2.396-0.576c-2.939,0-5.33,2.392-5.33,5.329  C206.088,262.232,206.2,262.827,206.397,263.382z M213.064,263.337h-3.873c-0.372-0.479-0.596-1.076-0.596-1.728  c0-1.557,1.266-2.821,2.822-2.821c0.578,0,1.114,0.175,1.563,0.475C212.72,260.512,212.7,261.887,213.064,263.337z M241.925,266.913  l-1.401,6.457h-22.44h-1.254h-1.255h-5.672l-1.618-7.457l-0.014-0.067h5.798h0.573h0.935h1.113h0.141h1.254h0.113h1.094h1.632h1.689  h3.598h0.848h0.804h1.591h0.492h1.527h3.784h2.02h0.458h1.419h2.087h0.916L241.925,266.913z M241.687,263.337h-3.106  c0.075-0.354,0.115-0.724,0.115-1.101c0-1.048-0.309-2.023-0.833-2.85c1.541-1.325,3.417-1.711,4.495-1.815  C242.656,258.797,242.962,261.167,241.687,263.337z"/>
<path id="organo" fill="#010202" d="M729.47,267.146c-1.085-0.453-5.294-1.194-8.462-1.712v-0.994l1.704-1.703c0.869-0.87,0.869-2.283,0-3.152  l-0.871-0.872c-0.842-0.84-2.313-0.84-3.153,0l-1.191,1.193l-0.229-0.459c-0.296-0.592-0.837-1.021-1.48-1.173  c-0.646-0.148-1.32-0.01-1.852,0.388l-0.423,0.316c-0.945,0.709-1.174,2.036-0.518,3.021l0.582,0.871v0.889  c-3.188-0.57-6.513-0.317-6.689-0.302c-6.304,0-9.66,11.604-9.66,19.979c0,3.356,0.62,5.603,1.895,6.869  c1.226,1.218,2.789,1.309,4.118,1.309c0.117,0,0.235,0,0.35-0.001l0.327-0.001c2.05,0,8.98-2.51,12.308-6.595l2.642,3.695  c0.43,0.604,1.12,0.931,1.82,0.931c0.392,0,0.785-0.103,1.141-0.314l1.159-0.694c0.53-0.319,0.908-0.853,1.034-1.457  c0.126-0.607-0.007-1.245-0.368-1.751l-2.326-3.258c6.057-1.501,11.574-5.939,11.574-9.138l0.005-0.335  C732.926,271.167,732.963,268.607,729.47,267.146z M714.941,262.234l-0.708-1.061c-0.22-0.328-0.144-0.771,0.173-1.006l0.422-0.318  c0.244-0.183,0.491-0.155,0.616-0.128c0.127,0.03,0.356,0.12,0.492,0.392l0.69,1.381c0.106,0.214,0.309,0.36,0.546,0.399  c0.234,0.036,0.477-0.04,0.646-0.208l1.922-1.922c0.289-0.29,0.76-0.29,1.05,0l0.872,0.871c0.289,0.29,0.289,0.761,0,1.051  l-1.922,1.922c-0.139,0.14-0.216,0.326-0.216,0.524v1.063c-1.063-0.167-1.854-0.288-2.119-0.325  c-0.11-0.017-0.218-0.004-0.315,0.025c-0.609-0.33-1.295-0.596-2.023-0.802v-1.446C715.065,262.499,715.02,262.356,714.941,262.234z   M722.442,286.292c0.12,0.171,0.164,0.378,0.123,0.584c-0.042,0.205-0.165,0.377-0.347,0.485l-1.158,0.694  c-0.326,0.198-0.761,0.109-0.986-0.205l-2.919-4.085c-0.016-0.021-0.035-0.03-0.052-0.048c0.191-0.338,0.361-0.682,0.497-1.038  c0.704-0.015,1.414-0.081,2.126-0.189L722.442,286.292z"/>
<path id="sangre" fill="#010202" d="M714.612,164.629c-1.11,0-2.012,0.899-2.012,2.011s0.9,2.011,2.012,2.011c1.11,0,2.011-0.899,2.011-2.011  S715.723,164.629,714.612,164.629z M718.703,175.366h5.94v-1.67h-5.94V175.366z M724.775,165.527h-3.447  c-0.533-3.227-3.343-5.695-6.717-5.695c-3.375,0-6.185,2.469-6.717,5.695h-3.447c-2.998,0-5.438,2.439-5.438,5.438v25.968  c0,2.999,2.439,5.438,5.438,5.438h5.288v1.839h3.208v1.348c0,3.612,2.937,6.55,6.548,6.55v-3.337c-1.771,0-3.211-1.44-3.211-3.212  v-1.348h3.211v-1.839h5.287c2.998,0,5.438-2.439,5.438-5.438v-25.969C730.212,167.966,727.771,165.527,724.775,165.527z   M724.644,196.229h-5.94v-1.669h5.94V196.229L724.644,196.229z M724.644,192.056h-5.94v-1.668h5.94V192.056L724.644,192.056z   M724.644,187.883h-5.94v-1.668h5.94V187.883L724.644,187.883z M724.644,183.71h-5.94v-1.668h5.94V183.71L724.644,183.71z   M727.991,177.869h-26.757v-6.905c0-1.771,1.44-3.212,3.213-3.212h4.469c0.614,0,1.113-0.498,1.113-1.112  c0-2.527,2.055-4.583,4.581-4.583s4.583,2.057,4.583,4.583c0,0.614,0.498,1.112,1.111,1.112h4.471c1.771,0,3.213,1.441,3.214,3.212  v6.905H727.991z"/>
<polygon fill="#008EAB" stroke="#008EAB" stroke-width="0.5929" stroke-linecap="round" stroke-linejoin="round" stroke-miterlimit="10" points="  205.849,168.001 205.423,166.829 204.537,165.229 203.559,164.126 202.697,162.919 204.515,163.482 205.304,163.721   206.716,163.556 211.468,159.042 212.012,159.475 213.501,159.808 211.377,163.571 209.939,165.778 210.016,166.662   217.958,166.761 223.856,166.5 223.364,167.347 223.957,167.149 224.648,166.276 224.682,165.815 217.601,166.045 214.239,165.75   211.208,166.111 212.2,164.672 213.145,163.696 214.247,160.412 214.484,161.062 214.845,162.409 213.586,163.57 211.974,165.301   213.218,166.441 217.765,166.77 222.441,166.54 224.813,166.474 225.241,166.243 225.162,167.347 225.669,166.968 225.999,166.177   225.241,165.947 214.998,166.079 214.239,165.75 213.006,165.536 215.107,163.848 216.149,161.928 215.407,160.541 215.148,159.11   215.021,158.763 216.29,159.141 218.854,159.178 219.32,160.454 218.313,163.964 218.703,164.348 232.339,165.015 236.193,165.212   237.131,165.04 237.156,165.224 237.693,166.736 238.218,167.097 237.769,164.71 219.622,163.947 219.877,163.564 220.64,160.683   220.553,160.083 220.72,158.524 222.426,157.796 223.128,158.565 225.116,158.681 225.47,158.499 226.488,158.549 233.76,155.921   234.502,155.939 238,154.715 239.072,154.193 248.282,165.75 248.41,165.598 251.384,167.263 251.954,166.95 251.009,166.453   248.696,165.23 248.101,164.895 240.167,153.662 245.148,151.028 248.479,149.708 249.009,149.067 248.495,148.308 247.358,147.645   246.583,146.745 245.068,145.693 242.628,144.77 240.94,143.965 239.041,143.659 235.211,143.11 233.557,143.188 230.125,143.441   228.355,143.851 225.872,144.757 223.653,145.882 221.901,147.495 220.584,149.001 219.694,149.878 219.46,150.463 217.187,151.293   216.228,151.117 215.371,150.93 214.329,151.1 213.386,152.049 212.919,153.218 212.618,153.618 211.799,153.969 211.401,154.535   210.982,155.766 210.765,155.819 207.651,159.031 206.861,159.624 206.618,160.62 205.557,160.955 204.573,160.999 203.934,161.047   202.529,153.633 198.18,149.619 194.411,147.866 197.847,150.004 202.193,153.914 203.277,161.05 202.537,161.399 202.217,161.963   199.833,157.536 196.498,155.098 193.001,151.93 196.249,155.425 199.511,158.022 201.896,162.527 201.801,163.384 202.254,164.491   202.952,165.176 204.038,166.663 205.328,167.618 205.5,167.804 "/>
<g>
	<g>
		<g>
			<path fill="#008EAB" d="M205.35,172.584c-2.36,0-4.279-1.851-4.279-4.124c0-0.406,0.329-0.734,0.734-0.734     c0.405,0,0.734,0.328,0.734,0.734c0,1.464,1.261,2.654,2.811,2.654c1.55,0,2.811-1.19,2.811-2.654     c0-0.406,0.328-0.734,0.734-0.734c0.405,0,0.735,0.328,0.735,0.734C209.63,170.734,207.711,172.584,205.35,172.584z"/>
		</g>
	</g>
</g>
<text transform="matrix(1 0 0 1 16.9546 356.6946)" font-family="'Roboto-Italic'" font-size="8">Fuente: Coalición Global de la Enfermedad de Chagas: Rompiendo el Silencio, una oportunidad para los pacientes de Chagas.</text>
</svg>